<svg width="614" height="321" viewBox="0 0 614 321" fill="none" xmlns="http://www.w3.org/2000/svg">
<path d="M30.74 14.8C31.5533 14.9733 32.2067 15.38 32.7 16.02C33.1933 16.6467 33.44 17.3667 33.44 18.18C33.44 19.3533 33.0267 20.2867 32.2 20.98C31.3867 21.66 30.2467 22 28.78 22H22.24V7.96H28.56C29.9867 7.96 31.1 8.28667 31.9 8.94C32.7133 9.59333 33.12 10.48 33.12 11.6C33.12 12.4267 32.9 13.1133 32.46 13.66C32.0333 14.2067 31.46 14.5867 30.74 14.8ZM25.66 13.64H27.9C28.46 13.64 28.8867 13.52 29.18 13.28C29.4867 13.0267 29.64 12.66 29.64 12.18C29.64 11.7 29.4867 11.3333 29.18 11.08C28.8867 10.8267 28.46 10.7 27.9 10.7H25.66V13.64ZM28.18 19.24C28.7533 19.24 29.1933 19.1133 29.5 18.86C29.82 18.5933 29.98 18.2133 29.98 17.72C29.98 17.2267 29.8133 16.84 29.48 16.56C29.16 16.28 28.7133 16.14 28.14 16.14H25.66V19.24H28.18ZM38.8436 10.7V13.54H43.4236V16.18H38.8436V19.26H44.0236V22H35.4236V7.96H44.0236V10.7H38.8436ZM51.3239 22.14C50.2972 22.14 49.3772 21.9733 48.5639 21.64C47.7506 21.3067 47.0972 20.8133 46.6039 20.16C46.1239 19.5067 45.8706 18.72 45.8439 17.8H49.4839C49.5372 18.32 49.7172 18.72 50.0239 19C50.3306 19.2667 50.7306 19.4 51.2239 19.4C51.7306 19.4 52.1306 19.2867 52.4239 19.06C52.7172 18.82 52.8639 18.4933 52.8639 18.08C52.8639 17.7333 52.7439 17.4467 52.5039 17.22C52.2772 16.9933 51.9906 16.8067 51.6439 16.66C51.3106 16.5133 50.8306 16.3467 50.2039 16.16C49.2972 15.88 48.5572 15.6 47.9839 15.32C47.4106 15.04 46.9172 14.6267 46.5039 14.08C46.0906 13.5333 45.8839 12.82 45.8839 11.94C45.8839 10.6333 46.3572 9.61333 47.3039 8.88C48.2506 8.13333 49.4839 7.76 51.0039 7.76C52.5506 7.76 53.7972 8.13333 54.7439 8.88C55.6906 9.61333 56.1972 10.64 56.2639 11.96H52.5639C52.5372 11.5067 52.3706 11.1533 52.0639 10.9C51.7572 10.6333 51.3639 10.5 50.8839 10.5C50.4706 10.5 50.1372 10.6133 49.8839 10.84C49.6306 11.0533 49.5039 11.3667 49.5039 11.78C49.5039 12.2333 49.7172 12.5867 50.1439 12.84C50.5706 13.0933 51.2372 13.3667 52.1439 13.66C53.0506 13.9667 53.7839 14.26 54.3439 14.54C54.9172 14.82 55.4106 15.2267 55.8239 15.76C56.2372 16.2933 56.4439 16.98 56.4439 17.82C56.4439 18.62 56.2372 19.3467 55.8239 20C55.4239 20.6533 54.8372 21.1733 54.0639 21.56C53.2906 21.9467 52.3772 22.14 51.3239 22.14ZM68.6486 7.96V10.7H64.9286V22H61.5086V10.7H57.7886V7.96H68.6486ZM87.1633 22H83.7433L78.0233 13.34V22H74.6033V7.96H78.0233L83.7433 16.66V7.96H87.1633V22ZM93.0023 7.96V16.36C93.0023 17.2 93.209 17.8467 93.6223 18.3C94.0357 18.7533 94.6423 18.98 95.4423 18.98C96.2423 18.98 96.8557 18.7533 97.2823 18.3C97.709 17.8467 97.9223 17.2 97.9223 16.36V7.96H101.342V16.34C101.342 17.5933 101.076 18.6533 100.542 19.52C100.009 20.3867 99.289 21.04 98.3823 21.48C97.489 21.92 96.489 22.14 95.3823 22.14C94.2757 22.14 93.2823 21.9267 92.4023 21.5C91.5357 21.06 90.849 20.4067 90.3423 19.54C89.8357 18.66 89.5823 17.5933 89.5823 16.34V7.96H93.0023ZM110.904 22L107.984 16.7H107.164V22H103.744V7.96H109.484C110.591 7.96 111.531 8.15333 112.304 8.54C113.091 8.92667 113.677 9.46 114.064 10.14C114.451 10.8067 114.644 11.5533 114.644 12.38C114.644 13.3133 114.377 14.1467 113.844 14.88C113.324 15.6133 112.551 16.1333 111.524 16.44L114.764 22H110.904ZM107.164 14.28H109.284C109.911 14.28 110.377 14.1267 110.684 13.82C111.004 13.5133 111.164 13.08 111.164 12.52C111.164 11.9867 111.004 11.5667 110.684 11.26C110.377 10.9533 109.911 10.8 109.284 10.8H107.164V14.28ZM121.871 22.14C120.844 22.14 119.924 21.9733 119.111 21.64C118.297 21.3067 117.644 20.8133 117.151 20.16C116.671 19.5067 116.417 18.72 116.391 17.8H120.031C120.084 18.32 120.264 18.72 120.571 19C120.877 19.2667 121.277 19.4 121.771 19.4C122.277 19.4 122.677 19.2867 122.971 19.06C123.264 18.82 123.411 18.4933 123.411 18.08C123.411 17.7333 123.291 17.4467 123.051 17.22C122.824 16.9933 122.537 16.8067 122.191 16.66C121.857 16.5133 121.377 16.3467 120.751 16.16C119.844 15.88 119.104 15.6 118.531 15.32C117.957 15.04 117.464 14.6267 117.051 14.08C116.637 13.5333 116.431 12.82 116.431 11.94C116.431 10.6333 116.904 9.61333 117.851 8.88C118.797 8.13333 120.031 7.76 121.551 7.76C123.097 7.76 124.344 8.13333 125.291 8.88C126.237 9.61333 126.744 10.64 126.811 11.96H123.111C123.084 11.5067 122.917 11.1533 122.611 10.9C122.304 10.6333 121.911 10.5 121.431 10.5C121.017 10.5 120.684 10.6133 120.431 10.84C120.177 11.0533 120.051 11.3667 120.051 11.78C120.051 12.2333 120.264 12.5867 120.691 12.84C121.117 13.0933 121.784 13.3667 122.691 13.66C123.597 13.9667 124.331 14.26 124.891 14.54C125.464 14.82 125.957 15.2267 126.371 15.76C126.784 16.2933 126.991 16.98 126.991 17.82C126.991 18.62 126.784 19.3467 126.371 20C125.971 20.6533 125.384 21.1733 124.611 21.56C123.837 21.9467 122.924 22.14 121.871 22.14ZM132.515 7.96V22H129.095V7.96H132.515ZM147.554 22H144.134L138.414 13.34V22H134.994V7.96H138.414L144.134 16.66V7.96H147.554V22ZM159.353 12.4C159.1 11.9333 158.733 11.58 158.253 11.34C157.786 11.0867 157.233 10.96 156.593 10.96C155.486 10.96 154.6 11.3267 153.933 12.06C153.266 12.78 152.933 13.7467 152.933 14.96C152.933 16.2533 153.28 17.2667 153.973 18C154.68 18.72 155.646 19.08 156.873 19.08C157.713 19.08 158.42 18.8667 158.993 18.44C159.58 18.0133 160.006 17.4 160.273 16.6H155.933V14.08H163.373V17.26C163.12 18.1133 162.686 18.9067 162.073 19.64C161.473 20.3733 160.706 20.9667 159.773 21.42C158.84 21.8733 157.786 22.1 156.613 22.1C155.226 22.1 153.986 21.8 152.893 21.2C151.813 20.5867 150.966 19.74 150.353 18.66C149.753 17.58 149.453 16.3467 149.453 14.96C149.453 13.5733 149.753 12.34 150.353 11.26C150.966 10.1667 151.813 9.32 152.893 8.72C153.973 8.10667 155.206 7.8 156.593 7.8C158.273 7.8 159.686 8.20667 160.833 9.02C161.993 9.83333 162.76 10.96 163.133 12.4H159.353ZM172.926 7.96V22H169.506V7.96H172.926ZM187.964 22H184.544L178.824 13.34V22H175.404V7.96H178.824L184.544 16.66V7.96H187.964V22ZM204.781 7.96V10.7H201.061V22H197.641V10.7H193.921V7.96H204.781ZM218.658 7.96V22H215.238V16.22H209.918V22H206.498V7.96H209.918V13.46H215.238V7.96H218.658ZM224.547 10.7V13.54H229.127V16.18H224.547V19.26H229.727V22H221.127V7.96H229.727V10.7H224.547ZM255.505 7.96L251.845 22H247.705L245.465 12.76L243.145 22H239.005L235.445 7.96H239.105L241.125 18.18L243.625 7.96H247.385L249.785 18.18L251.825 7.96H255.505ZM263.86 22.14C262.54 22.14 261.327 21.8333 260.22 21.22C259.127 20.6067 258.254 19.7533 257.6 18.66C256.96 17.5533 256.64 16.3133 256.64 14.94C256.64 13.5667 256.96 12.3333 257.6 11.24C258.254 10.1467 259.127 9.29333 260.22 8.68C261.327 8.06667 262.54 7.76 263.86 7.76C265.18 7.76 266.387 8.06667 267.48 8.68C268.587 9.29333 269.454 10.1467 270.08 11.24C270.72 12.3333 271.04 13.5667 271.04 14.94C271.04 16.3133 270.72 17.5533 270.08 18.66C269.44 19.7533 268.574 20.6067 267.48 21.22C266.387 21.8333 265.18 22.14 263.86 22.14ZM263.86 19.02C264.98 19.02 265.874 18.6467 266.54 17.9C267.22 17.1533 267.56 16.1667 267.56 14.94C267.56 13.7 267.22 12.7133 266.54 11.98C265.874 11.2333 264.98 10.86 263.86 10.86C262.727 10.86 261.82 11.2267 261.14 11.96C260.474 12.6933 260.14 13.6867 260.14 14.94C260.14 16.18 260.474 17.1733 261.14 17.92C261.82 18.6533 262.727 19.02 263.86 19.02ZM280.103 22L277.183 16.7H276.363V22H272.943V7.96H278.683C279.79 7.96 280.73 8.15333 281.503 8.54C282.29 8.92667 282.876 9.46 283.263 10.14C283.65 10.8067 283.843 11.5533 283.843 12.38C283.843 13.3133 283.576 14.1467 283.043 14.88C282.523 15.6133 281.75 16.1333 280.723 16.44L283.963 22H280.103ZM276.363 14.28H278.483C279.11 14.28 279.576 14.1267 279.883 13.82C280.203 13.5133 280.363 13.08 280.363 12.52C280.363 11.9867 280.203 11.5667 279.883 11.26C279.576 10.9533 279.11 10.8 278.483 10.8H276.363V14.28ZM289.41 19.36H293.89V22H285.99V7.96H289.41V19.36ZM300.781 7.96C302.261 7.96 303.555 8.25333 304.661 8.84C305.768 9.42667 306.621 10.2533 307.221 11.32C307.835 12.3733 308.141 13.5933 308.141 14.98C308.141 16.3533 307.835 17.5733 307.221 18.64C306.621 19.7067 305.761 20.5333 304.641 21.12C303.535 21.7067 302.248 22 300.781 22H295.521V7.96H300.781ZM300.561 19.04C301.855 19.04 302.861 18.6867 303.581 17.98C304.301 17.2733 304.661 16.2733 304.661 14.98C304.661 13.6867 304.301 12.68 303.581 11.96C302.861 11.24 301.855 10.88 300.561 10.88H298.941V19.04H300.561Z" fill="#DF6951"/>
<mask id="mask0_327_17" style="mask-type:alpha" maskUnits="userSpaceOnUse" x="0" y="126" width="385" height="12">
<rect y="126" width="385" height="12" fill="#C4C4C4"/>
</mask>
<g mask="url(#mask0_327_17)">
<path d="M57.8283 123.462L58.7692 123.304L56.9382 123.077L57.8159 122.911C58.6961 122.913 59.8364 123.161 60.457 123.029C60.5328 122.901 59.5744 122.86 59.3298 122.758C59.1134 122.654 58.9368 122.55 58.8021 122.448C59.2814 122.449 59.8084 122.474 60.3517 122.52C61.0825 122.597 61.7994 122.634 62.4231 122.628C63.6986 122.648 64.9308 122.628 66.3175 122.632L65.8561 122.324L67.6433 122.396C67.8327 122.42 68.0585 122.382 68.2446 122.411C69.7934 122.657 70.4488 122.523 71.1923 122.412C71.3448 122.383 71.5284 122.362 71.7384 122.348C73.8046 122.407 75.6677 122.751 77.5284 122.928C77.8786 122.973 78.2145 123.031 78.5123 123.098C79.1595 123.227 79.8794 123.333 80.6062 123.405C81.3329 123.477 82.0433 123.514 82.6724 123.511C84.0636 123.508 85.6353 123.594 87.2355 123.76C87.7114 123.815 88.1875 123.851 88.6336 123.866C89.0798 123.881 89.4861 123.875 89.8266 123.848L90.9084 124.024C91.3774 123.952 91.9721 123.913 92.6563 123.909C93.3406 123.904 94.1001 123.934 94.889 123.997C95.7296 124.065 96.5834 124.111 97.4556 124.184C99.2572 124.322 101.011 124.406 102.661 124.434C105.119 124.518 107.521 124.582 110.001 124.686C111.552 124.737 113.064 124.764 114.527 124.769C116.279 124.789 118.174 124.884 120.121 125.05V125.05C120.029 125.206 119.175 125.16 118.602 125.154C116.754 125.129 114.862 125.061 112.96 125.011C112.103 124.991 111.27 124.984 110.466 124.989C109.12 124.982 107.702 124.941 106.235 124.865C103.918 124.782 101.675 124.741 99.5289 124.745C99.3606 124.751 99.2065 124.762 99.069 124.778C99.0403 124.791 99.0346 124.808 99.0525 124.827C99.0704 124.846 99.1113 124.866 99.1712 124.885C99.2312 124.905 99.3081 124.923 99.3947 124.938C99.4814 124.953 99.5748 124.964 99.6661 124.971C100.518 125.077 101.434 125.19 102.238 125.206C102.269 125.207 102.302 125.21 102.335 125.214C102.368 125.218 102.399 125.223 102.427 125.229C104.227 125.452 105.706 125.415 107.108 125.451C109.435 125.549 111.679 125.595 113.805 125.587C114.126 125.588 114.473 125.601 114.833 125.625C117.059 125.725 119.141 125.736 120.981 125.658C121.738 125.638 122.442 125.594 123.256 125.593C123.757 125.59 124.193 125.562 124.538 125.511C124.883 125.459 125.13 125.385 125.264 125.293C125.607 125.341 125.956 125.384 126.305 125.422C126.514 125.443 126.715 125.449 126.866 125.438C127.017 125.426 127.108 125.399 127.121 125.361C127.183 125.256 126.706 125.203 126.293 125.157C126.542 125.135 126.823 125.121 127.13 125.118C128.854 125.094 130.703 125.122 132.637 125.203C134.138 125.299 135.337 125.221 136.917 125.357C137.107 125.38 137.262 125.346 137.437 125.337C137.891 125.294 138.458 125.284 139.087 125.309C139.716 125.334 140.388 125.392 141.046 125.48C141.865 125.241 143.635 125.514 144.942 125.538C145.345 125.66 144.883 125.638 144.863 125.672C144.843 125.705 144.863 125.672 144.705 125.652C143.4 125.824 141.612 125.862 139.593 125.76C139.219 125.76 138.863 125.768 138.528 125.783C138.021 125.804 137.449 125.802 136.838 125.777C136.169 125.758 135.556 125.767 135.026 125.803C134.721 125.803 134.463 125.821 134.276 125.856C134.09 125.891 133.98 125.943 133.957 126.005C134.161 126.053 134.386 126.097 134.625 126.136C135.873 126.287 137.118 126.349 138.114 126.311C139.847 126.245 141.91 126.309 143.753 126.287C144.999 126.278 146.325 126.304 147.706 126.364C147.706 126.364 147.67 126.426 147.666 126.431C147.83 126.458 148.001 126.479 148.172 126.494C148.172 126.494 148.172 126.494 148.188 126.466C148.112 126.439 148.01 126.414 147.892 126.393L147.482 126.343C147.761 126.329 148.021 126.29 148.312 126.314C148.924 126.359 149.51 126.378 150.033 126.369C150.556 126.361 151.006 126.327 151.356 126.267C151.976 126.191 152.747 126.156 153.619 126.165C154.287 126.157 154.931 126.139 155.548 126.111C155.548 126.111 155.588 126.045 155.88 126.009C155.603 125.965 155.315 125.93 155.028 125.904C153.779 125.838 152.526 125.779 151.299 125.734C150.847 125.73 150.422 125.737 150.032 125.757C148.952 125.779 147.738 125.747 146.462 125.661C146.462 125.661 146.21 125.63 146.084 125.614C146.442 125.467 147.676 125.614 148.176 125.515C148.479 125.517 149.014 125.529 148.996 125.503C148.954 125.468 148.949 125.436 148.981 125.408C149.013 125.38 149.082 125.358 149.181 125.343C149.281 125.328 149.409 125.32 149.558 125.321C149.706 125.321 149.87 125.33 150.038 125.345C151.443 125.431 152.767 125.454 153.928 125.415C154.368 125.416 154.861 125.441 155.298 125.447C155.565 125.455 155.81 125.451 156.017 125.435C157.072 125.318 158.492 125.31 160.064 125.411C160.824 125.447 161.533 125.452 162.157 125.425C162.6 125.42 162.788 125.503 163.104 125.542L164.444 125.625L162.723 125.728C163.091 125.965 163.383 126.043 163.984 126.057C164.862 126.08 165.716 126.09 166.542 126.087C167.153 126.086 167.658 126.035 168.485 126.125C168.631 126.14 168.772 126.145 168.884 126.139C169.853 126.058 171.02 126.04 172.305 126.085C172.97 125.934 174.103 126.08 175.152 126.198C175.49 126.085 174.877 126.033 174.511 125.964C175.388 125.971 176.272 125.967 177.177 125.983C177.449 125.977 177.76 125.988 178.086 126.013C178.412 126.039 178.743 126.08 179.054 126.132C179.205 126.166 179.388 126.191 179.564 126.203C179.74 126.215 179.896 126.212 179.999 126.196C180.469 126.146 181.221 126.192 181.61 126.108C181.748 126.089 181.945 126.086 182.166 126.101C182.387 126.115 182.618 126.145 182.817 126.186V126.186C182.599 126.199 182.405 126.219 182.24 126.246C181.645 126.334 181.864 126.48 182.619 126.693C183.778 126.681 184.962 126.685 186.036 126.645C186.635 126.609 187.369 126.62 188.155 126.677C188.941 126.734 189.748 126.835 190.486 126.969C190.753 127.02 191.058 127.056 191.339 127.068C191.62 127.081 191.858 127.07 192.005 127.037C192.096 127 192.124 126.952 192.087 126.898L191.329 126.805C191.329 126.805 191.359 126.754 191.366 126.743L192.455 126.735C193.031 126.735 193.632 126.749 194.177 126.745C194.977 126.717 195.891 126.733 196.861 126.791C197.756 126.851 198.636 126.896 199.492 126.926C200.321 126.957 200.922 126.858 201.71 126.842C202.307 126.83 202.963 126.843 203.654 126.88C204.847 126.945 205.942 126.945 206.839 126.88C207.885 127.231 208.393 127.288 209.364 127.193L209.821 127.166L209.946 127.241L210.295 127.224C210.947 127.21 211.6 127.195 212.281 127.19C213.227 127.222 214.25 127.31 215.248 127.444C215.437 127.467 215.695 127.547 215.861 127.609C216.028 127.672 216.39 127.86 216.657 127.983C216.366 128.072 216.045 128.158 215.814 128.26C215.791 128.278 215.793 128.299 215.821 128.322C215.848 128.344 215.9 128.368 215.972 128.391C216.045 128.414 216.135 128.435 216.236 128.453C216.338 128.472 216.447 128.486 216.556 128.496C216.768 128.516 216.978 128.53 217.176 128.537C218.151 128.547 219.085 128.539 219.969 128.512C220.291 128.474 220.733 128.47 221.224 128.502C221.715 128.533 222.227 128.598 222.678 128.687C223.834 128.634 225.178 128.649 226.616 128.732C228.137 128.682 229.974 128.784 231.395 128.673C231.362 128.729 231.509 128.825 231.713 128.88C232.037 128.964 232.403 129.041 232.797 129.11L235.802 129.243C235.914 129.311 236.054 129.381 236.221 129.45C236.335 129.505 236.534 129.559 236.775 129.6C237.017 129.641 237.282 129.666 237.514 129.67C238.112 129.69 238.613 129.645 239.326 129.757C238.228 129.863 236.748 129.849 235.148 129.717C233.645 129.617 232.199 129.567 230.864 129.569C230.424 129.568 229.844 129.574 229.707 129.635C229.402 129.806 228.605 129.779 227.675 129.747C226.944 129.713 226.277 129.717 225.727 129.759C225.178 129.801 224.763 129.88 224.515 129.989C224.453 130.095 224.603 130.185 225.244 130.247L227.911 130.493C228.304 130.461 228.676 130.424 229.028 130.381C229.619 130.323 230.35 130.308 231.163 130.335C231.975 130.362 232.848 130.431 233.713 130.537C234.155 130.592 234.597 130.646 234.918 130.62C235.199 130.591 235.458 130.555 235.693 130.513C235.74 130.486 235.759 130.454 235.749 130.419C235.919 130.435 236.089 130.456 236.254 130.481C237.57 130.776 238.59 130.771 239.516 130.694C239.767 130.672 239.958 130.636 240.212 130.607C240.466 130.579 240.555 130.542 240.786 130.553C242.627 130.65 243.157 130.327 244.708 130.34C244.783 130.327 244.83 130.309 244.844 130.285C244.858 130.262 244.838 130.235 244.787 130.207C244.677 130.181 244.551 130.159 244.418 130.143C244.286 130.126 244.152 130.116 244.029 130.113C243.315 130.071 242.685 130.084 242.246 130.149C241.935 130.175 241.605 130.196 241.26 130.212L239.706 129.745C241.211 129.787 242.634 129.787 243.943 129.744C244.228 129.719 244.712 129.761 245.114 129.769L248.07 129.813C248.678 129.817 249.196 129.743 250.043 129.914C250.043 129.914 250.603 129.942 250.752 129.918C250.902 129.895 251.564 129.75 251.959 129.656C252.417 129.682 253.052 129.755 253.337 129.731C253.836 129.671 254.268 129.594 254.625 129.502L256.411 129.634C256.409 129.751 256.344 129.861 256.216 129.962C256.077 130.06 256.082 130.177 256.23 130.304C256.379 130.432 256.666 130.565 257.07 130.695L258.833 131.379C259.121 131.425 259.428 131.456 259.712 131.467C259.996 131.479 260.243 131.471 260.421 131.444C261.18 131.365 262.03 131.303 262.788 131.224C263.767 131.345 263.515 131.541 264.227 131.712L266.531 131.998C266.883 132.262 267.241 132.516 266.172 132.604C265.96 132.62 266.103 132.721 265.909 132.763C266.74 132.961 267.654 133.021 268.496 133.143C268.828 133.231 269.106 133.324 269.316 133.418C269.547 133.559 270.014 133.703 270.617 133.819C271.221 133.935 271.911 134.014 272.54 134.038C273.596 134.112 274.676 134.224 275.734 134.368C276.095 134.418 276.466 134.454 276.822 134.475C277.178 134.495 277.511 134.499 277.798 134.486C278.821 134.464 279.687 134.386 280.34 134.258C280.985 134.149 281.855 134.096 282.87 134.105C284.607 134.32 284.957 134.644 286.007 134.93L284.192 134.962C284.127 135.073 284.247 135.213 283.503 135.211C282.759 135.208 283.136 135.314 283.377 135.422C283.462 135.476 283.628 135.532 283.847 135.579C284.066 135.627 284.324 135.664 284.578 135.684L286.123 135.822C286.671 135.874 287.201 135.896 287.655 135.886C288.109 135.876 288.47 135.834 288.698 135.764C288.96 135.698 289.321 135.654 289.759 135.633C290.317 135.579 290.776 135.499 291.119 135.396L293.301 135.546C293.394 135.442 293.693 135.369 294.149 135.34C294.605 135.31 295.189 135.326 295.803 135.384L297.273 135.477C298.907 135.578 299.266 135.545 299.745 135.251L297.784 134.728C298.069 134.59 298.344 134.469 298.62 134.348C298.131 134.175 297.48 134.012 296.731 133.875C296.032 133.728 295.314 133.585 294.579 133.447C293.781 133.307 292.938 133.184 291.948 133.026C291.775 132.974 291.524 132.884 291.203 132.796C290.882 132.711 290.547 132.628 290.199 132.546C290.265 132.435 290.324 132.335 290.197 132.206C290.807 132.247 291.437 132.319 292.031 132.416C292.625 132.512 293.163 132.63 293.597 132.758C293.67 132.781 293.76 132.802 293.86 132.821C293.96 132.84 294.068 132.855 294.178 132.866C295.249 132.945 295.761 133.11 296.285 133.312C296.638 133.415 297.093 133.507 297.587 133.575C298.534 133.692 299.461 133.843 300.367 133.973C300.644 134.016 300.932 134.052 301.219 134.078C302.166 134.163 303.118 134.281 304.029 134.426C304.326 134.463 304.611 134.512 304.86 134.569C305.11 134.626 305.316 134.689 305.462 134.753C305.236 134.823 305.115 134.912 305.104 135.013C305.065 135.08 305.73 135.216 306.044 135.315C306.358 135.414 305.742 135.367 305.533 135.377C304.674 135.396 304.515 135.436 305.029 135.655C305.201 135.724 305.315 135.793 305.364 135.857C305.413 135.922 305.396 135.981 305.315 136.031C305.193 136.237 304.821 136.406 304.566 136.607C304.962 136.74 305.624 136.881 305.696 137.046C305.731 137.082 305.804 137.121 305.91 137.159C306.017 137.197 306.154 137.233 306.311 137.265C306.727 137.335 307.105 137.418 307.416 137.508C307.726 137.598 307.962 137.693 308.104 137.786C308.15 137.824 308.262 137.865 308.418 137.899C308.573 137.934 308.76 137.96 308.942 137.973C309.158 137.989 309.352 137.987 309.484 137.967C309.615 137.948 309.673 137.913 309.647 137.869C309.652 137.787 309.624 137.702 309.561 137.614C309.597 137.553 309.634 137.491 309.49 137.39C310.138 137.427 310.817 137.501 311.455 137.604C312.093 137.708 312.664 137.836 313.108 137.976C313.599 138.12 314.051 138.272 314.595 138.44C314.483 138.63 314.483 138.63 315.64 138.964L321.779 139.127L323.037 139.349C324.21 139.542 324.489 139.528 325.226 139.429L325.722 139.335C326.764 139.464 327.964 139.612 328.615 139.371C328.827 139.528 328.965 139.581 328.917 139.605C328.606 139.838 328.065 140.035 327.317 140.189C327.126 140.225 326.992 140.28 326.769 140.312C326.052 140.494 325.886 140.775 326.304 141.097C326.512 141.24 326.814 141.386 327.2 141.53C326.635 141.731 325.887 141.898 324.975 142.025C324.201 142.124 323.564 142.256 323.082 142.418C322.649 142.581 322 142.704 321.174 142.779C320.754 142.811 320.448 142.874 320.286 142.961C320.238 143.199 320.349 143.453 320.616 143.719C320.667 143.8 320.81 143.887 321.035 143.974C321.26 144.061 321.56 144.145 321.912 144.22C321.912 144.22 322.082 144.277 322.163 144.311C322.231 144.598 321.977 144.852 321.418 145.054C321.326 145.112 321.138 145.153 320.875 145.174C320.612 145.195 320.283 145.195 319.923 145.174C319.164 145.139 318.455 145.135 317.721 145.116C316.93 145.089 316.233 145.11 315.704 145.178C315.175 145.246 314.833 145.358 314.714 145.502C314.706 145.543 314.683 145.582 314.644 145.619C314.622 145.638 314.61 145.658 314.608 145.68L316.294 146.152L314.387 146.339C314.275 146.529 315.19 146.642 315.649 146.782L315.365 146.861C315 146.905 314.508 146.82 314.063 146.771L313.621 146.716L313.568 146.805C313.293 146.927 312.29 146.79 311.898 146.879C311.507 146.968 311.786 147.068 312.373 147.165C312.78 147.237 313.218 147.294 313.653 147.332C314.089 147.371 314.509 147.389 314.885 147.386C315.109 147.377 315.294 147.355 315.431 147.323C316.222 147.184 317.097 147.065 318.048 146.966C318.777 146.877 319.69 146.839 320.723 146.855C321.026 146.849 321.391 146.87 321.755 146.915C322.119 146.96 322.458 147.026 322.712 147.102V147.102L323.247 147.114C323.247 147.114 323.539 147.192 323.498 147.205C323.294 147.436 323.531 147.719 324.172 148.011V148.011L323.614 148.038C322.817 148.011 323.323 148.187 323.203 148.273C322.637 148.257 321.901 148.184 321.633 148.294L321.231 148.286L321.388 148.305L321.579 148.269L322.329 148.434C321.974 148.461 321.716 148.495 321.403 148.51C321.229 148.523 321.091 148.546 320.997 148.577C320.903 148.609 320.854 148.648 320.854 148.693C320.855 148.762 320.761 148.82 320.582 148.862C320.403 148.903 320.145 148.927 319.832 148.931C319.458 148.932 319.244 149.007 319.025 149.034L319.977 149.486C319.977 149.486 319.503 149.428 319.761 149.507L319.794 149.452L320.371 149.565C320.787 149.664 321.077 149.688 321.323 149.617C321.568 149.546 321.512 149.64 321.63 149.613C321.587 149.686 321.32 149.736 321.091 149.779C320.826 149.813 320.527 149.838 320.199 149.854C320.79 150.172 320.819 150.182 319.955 150.266C319.092 150.35 319.39 150.476 318.668 150.495C317.945 150.513 318.767 150.728 319.25 150.77C319.609 150.797 319.974 150.84 320.321 150.896C320.669 150.951 320.99 151.018 321.263 151.091L321.118 151.335C320.905 151.315 320.692 151.289 320.486 151.257C319.786 151.123 319.15 150.996 318.527 151.074L318.824 151.26L316.651 151.153C316.707 151.292 317.039 151.451 317.575 151.595V151.595C317.494 151.675 317.444 151.758 317.426 151.846C317.39 151.907 317.176 151.868 317.036 151.875C316.539 151.885 316.13 151.927 315.847 151.996C315.564 152.065 315.415 152.159 315.412 152.271C315.356 152.366 316.121 152.562 316.599 152.555C317.793 152.574 319.085 152.647 320.403 152.77C321.207 152.786 321.32 152.537 322.643 152.707C322.669 152.822 322.5 152.915 322.16 152.972C321.821 153.029 321.33 153.047 320.761 153.023C321.085 153.278 322.875 153.345 322.954 153.611C322.508 153.592 322.032 153.548 321.571 153.483C321.111 153.417 320.682 153.333 320.329 153.238C320.252 153.215 320.157 153.193 320.05 153.176C319.944 153.158 319.83 153.145 319.72 153.137C319.609 153.129 319.506 153.127 319.419 153.132C319.332 153.136 319.264 153.146 319.222 153.161C319.47 153.257 319.743 153.369 320.054 153.473C320.365 153.577 320.44 153.622 320.664 153.644C322.337 153.851 323.133 154.225 324.581 154.47C324.959 154.517 325.006 154.666 324.678 154.649C324.365 154.632 324.081 154.634 323.86 154.655C323.638 154.676 323.486 154.715 323.421 154.768C323.178 154.829 322.876 154.878 322.522 154.913C324.006 155.296 325.776 155.635 327.666 155.897C328.023 155.949 328.397 155.98 328.73 155.987C329.785 155.987 330.904 156.018 332.066 156.077C332.477 156.094 332.858 156.092 333.186 156.073C334.264 156.027 335.12 156.127 335.902 156.409L337.195 156.856C337.153 156.928 336.935 157.009 336.768 157.12L337.779 157.358L345.492 156.809L347.04 157.341L349.261 157.311C349.431 157.327 349.602 157.348 349.766 157.374C350.215 157.531 350.566 157.682 351.053 157.832C351.54 157.982 352.411 158 353.018 158.177C353.625 158.353 354.232 158.357 354.983 158.462C355.054 158.599 354.981 158.722 354.769 158.824C354.7 158.94 354.318 159.013 354.252 159.124C354.26 159.236 354.118 159.332 353.84 159.402C353.562 159.472 353.156 159.514 352.66 159.524C351.27 159.763 349.594 159.934 347.683 160.03C347.515 160.037 347.376 160.053 347.274 160.078C347.172 160.102 347.11 160.134 347.091 160.172C347.094 160.281 346.966 160.375 346.718 160.448C346.47 160.521 346.107 160.57 345.656 160.591C345.536 160.596 345.446 160.609 345.396 160.631C345.225 160.645 345.1 160.671 345.034 160.707C344.968 160.743 344.963 160.789 345.019 160.838C345.074 160.888 345.19 160.94 345.353 160.99C345.516 161.04 345.722 161.086 345.951 161.124C346.283 161.184 346.622 161.242 346.966 161.297C346.947 161.33 346.605 161.336 346.654 161.366C346.789 161.462 346.821 161.552 346.746 161.629C346.671 161.705 346.492 161.767 346.223 161.808L348.066 162.586C349.185 162.694 350.283 162.876 351.151 163.099C351.152 163.136 351.102 163.166 351.006 163.188C350.91 163.21 350.771 163.222 350.603 163.223C350.153 163.239 349.728 163.269 349.243 163.287C348.947 163.3 348.7 163.329 348.518 163.372C348.335 163.415 348.221 163.471 348.18 163.538L349.262 163.827C348.916 163.897 348.658 163.931 348.429 163.975C348.559 164.065 348.782 164.16 349.082 164.249C349.381 164.339 349.748 164.423 350.155 164.493C350.265 164.507 350.376 164.518 350.483 164.524C350.59 164.53 350.69 164.532 350.778 164.528C351.617 164.429 352.597 164.604 353.549 164.77C354.502 164.936 355.019 165.036 355.722 165.164L357.067 165.182C357.407 165.243 357.711 165.314 357.954 165.391C358.197 165.468 358.372 165.548 358.465 165.624C358.393 165.746 357.755 165.679 357.375 165.692C356.473 165.768 355.287 165.752 354.013 165.646C353.698 165.606 353.374 165.638 353.067 165.642C352.404 165.657 351.767 165.682 351.159 165.716C350.758 165.748 350.384 165.787 350.038 165.834C349.946 165.99 351.4 166.11 350.575 166.187C350.859 166.222 350.965 166.271 351.111 166.254C352.047 166.355 352.969 166.405 353.771 166.398C355.309 166.376 357.055 166.447 358.867 166.605C360.822 166.768 362.698 166.837 364.339 166.805C364.965 166.803 365.663 166.837 366.383 166.903C367.232 166.994 368.075 167.052 368.858 167.072C369.117 167.073 369.406 167.088 369.7 167.118C369.995 167.147 370.288 167.189 370.554 167.24V167.24C370.531 167.279 370.277 167.307 370.334 167.326C371.144 167.618 371.472 167.921 372.719 168.219C373.571 168.325 374.55 168.446 375.107 168.306C375.665 168.166 375.465 168.046 374.356 167.687C374.596 167.682 374.886 167.699 375.175 167.735C375.463 167.77 375.732 167.823 375.934 167.883L376.894 168.151L377.758 168.407C377.682 168.535 377.623 168.635 377.56 168.741C377.461 168.853 377.57 168.99 377.871 169.132C378.052 169.209 378.211 169.287 378.344 169.364C378.884 169.671 379.041 169.961 378.796 170.202C378.326 170.548 377.672 170.867 376.842 171.154C375.965 171.434 375.484 171.786 374.762 172.091C374.393 172.23 373.945 172.354 373.423 172.463C372.433 172.704 371.348 172.934 370.354 173.181C369.36 173.429 368.238 173.606 367.135 173.81C365.492 174.052 363.716 174.261 361.817 174.435C360.642 174.588 359.435 174.737 358.348 174.913C357.064 175.112 355.556 175.254 353.861 175.337C352.364 175.436 351.026 175.583 349.874 175.775C349.753 175.796 349.658 175.822 349.59 175.853C349.383 176.049 348.801 176.186 347.935 176.245C347.987 176.303 348.055 176.361 348.136 176.42C348.256 176.49 348.282 176.555 348.208 176.608C348.135 176.661 347.966 176.698 347.724 176.715C347.031 176.763 346.455 176.846 346.021 176.958C345.862 176.986 345.763 177.027 345.733 177.077C345.704 177.128 345.743 177.186 345.85 177.247C345.944 177.31 345.951 177.368 345.87 177.413C345.788 177.458 345.623 177.489 345.394 177.501C344.807 177.561 344.179 177.609 343.513 177.645C342.096 177.724 340.449 177.723 338.669 177.642C338.48 177.618 338.289 177.654 338.068 177.627C336.809 177.536 335.641 177.522 334.703 177.587C333.604 177.612 332.455 177.607 331.295 177.618C329.621 177.61 328.076 177.658 326.704 177.76C325.136 177.662 324.255 177.833 322.931 177.837C321.709 177.854 320.551 177.896 319.468 177.963C317.721 178.051 315.981 178.128 314.259 178.232C312.644 178.281 311.157 178.375 309.823 178.512C309.312 178.574 308.387 178.478 308.038 178.608C307.69 178.738 306.988 178.722 306.42 178.766L304.628 178.872C304.32 178.898 303.982 178.914 303.617 178.92C301.952 178.929 300.798 179.102 299.252 179.138L299.094 179.118C296.349 179.377 293.208 179.518 289.763 179.539C287.751 179.618 285.55 179.615 283.415 179.673C282.905 179.789 281.703 179.646 281.064 179.752C280.425 179.858 279.381 179.788 278.558 179.806C277.734 179.823 276.929 179.867 276.049 179.865C275.284 179.866 274.639 179.913 274.171 180.003C273.103 180.151 271.802 180.239 270.325 180.261C268.37 180.3 266.522 180.387 264.534 180.368C264.563 180.476 264.441 180.568 264.181 180.635C263.921 180.701 263.533 180.74 263.056 180.746C260.931 180.788 259.003 180.895 256.849 180.927L256.273 180.927L249.831 180.99C248.096 181.002 246.424 181.021 244.654 181.035C243.991 180.953 243.975 181.094 243.516 181.067C243.388 180.998 243.237 180.967 243.011 181.005L242.961 181.088L235.61 181.199C232.732 181.28 229.704 181.304 226.553 181.272C225.805 181.28 225.108 181.307 224.471 181.354C223.88 181.371 223.265 181.379 222.628 181.377C221.766 181.356 220.924 181.345 220.105 181.345C217.951 181.377 215.691 181.36 213.332 181.336C210.974 181.313 209.187 181.354 207.088 181.351C205.667 181.348 204.252 181.334 202.78 181.301C202.078 181.286 201.212 181.203 200.485 181.172C199.757 181.142 199.52 181.142 199.424 181.19C199.107 181.324 198.311 181.237 197.675 181.224C196.434 181.202 196.258 181.156 195.921 180.81L197.443 180.7C197.817 180.665 198.286 180.658 198.806 180.682C199.326 180.706 199.88 180.758 200.413 180.835C200.623 180.868 200.843 180.894 201.059 180.911C201.276 180.929 201.485 180.938 201.674 180.937C203.21 180.919 204.725 180.879 206.201 180.847L206.417 180.826L206.43 180.517C206.235 180.487 206.033 180.462 205.831 180.443L198.426 180.242C196.727 180.193 194.963 180.082 193.296 180.037C191.628 179.992 190.729 179.964 189.436 179.917C188.89 179.891 188.333 179.856 187.769 179.812C187.802 179.783 187.821 179.751 187.826 179.718C187.855 179.668 187.895 179.601 187.655 179.547C187.394 179.472 187.045 179.407 186.678 179.367C186.333 179.34 185.999 179.325 185.688 179.322C184.186 179.296 182.471 179.133 180.908 178.867L180.363 179.044C178.016 178.945 175.634 178.847 173.182 178.752C172.691 178.726 172.176 178.677 171.675 178.607C171.139 178.541 170.645 178.402 170.08 178.326C169.522 178.272 168.967 178.229 168.427 178.199C168.573 178.153 168.766 178.117 168.999 178.091C169.229 178.082 169.396 178.053 169.477 178.009C169.558 177.966 169.548 177.909 169.448 177.848C169.274 177.743 169.197 177.644 169.577 177.631C169.928 177.607 170.18 177.555 170.302 177.481C170.423 177.407 170.41 177.315 170.264 177.214C170.2 177.156 170.155 177.098 170.129 177.042V177.042L169.971 177.023C169.451 176.815 168.411 176.74 167.664 176.57C167.312 176.521 166.947 176.492 166.628 176.489C165.802 176.453 164.998 176.437 164.145 176.391C163.737 176.37 163.31 176.331 162.89 176.277C162.29 176.203 162.227 176.195 161.879 175.925C162.42 175.93 162.849 175.889 163.093 175.811C163.337 175.732 163.382 175.62 163.219 175.494C162.773 175.218 162.301 174.926 160.283 174.73C160.941 174.72 161.575 174.701 162.181 174.672C162.357 174.666 162.489 174.646 162.559 174.614C162.629 174.583 162.634 174.541 162.573 174.495C162.511 174.449 162.387 174.401 162.216 174.357C162.046 174.314 161.837 174.276 161.618 174.25C160.552 174.094 159.441 173.989 158.408 173.948C157.538 173.93 156.752 173.94 155.736 173.94L154.536 173.791C154.556 173.758 154.38 173.712 154.424 173.694C154.729 173.523 155.066 173.355 155.412 173.171C154.859 173.072 154.38 172.952 154.029 172.825C153.679 172.698 153.472 172.57 153.431 172.454C153.401 172.419 153.409 172.387 153.454 172.361C153.499 172.335 153.58 172.314 153.691 172.301C154.007 172.279 154.251 172.236 154.403 172.176C154.556 172.117 154.614 172.041 154.573 171.957L153.64 171.644C150.831 171.421 148.073 171.261 145.416 171.169L143.017 171.099C142.728 171.015 142.818 170.978 143.09 170.976C143.362 170.974 144.128 170.997 144.663 171.01C145.125 171.026 145.535 171.015 145.854 170.979C146.172 170.942 146.389 170.88 146.482 170.799L145.677 170.443C145.716 170.376 145.772 170.281 146.209 170.288C146.508 170.28 146.727 170.246 146.833 170.192C146.939 170.138 146.925 170.067 146.792 169.99C146.772 169.934 146.802 169.883 146.881 169.839C147.527 169.836 148.17 169.838 148.756 169.821C149.029 169.815 149.26 169.794 149.432 169.76C149.605 169.726 149.715 169.679 149.755 169.622C149.776 169.567 149.725 169.504 149.605 169.438C149.485 169.372 149.3 169.306 149.064 169.244C148.146 169.167 147.305 169.166 146.728 169.241C146.522 169.3 146.191 169.332 145.779 169.333C145.367 169.334 144.893 169.304 144.419 169.248C143.877 169.183 143.336 169.154 142.894 169.167C142.451 169.18 142.136 169.234 142.005 169.319C141.449 169.286 140.955 169.261 140.469 169.224C139.894 169.178 139.352 169.165 138.899 169.185C138.175 169.2 137.394 169.191 136.576 169.16C134.215 169.083 131.852 169.011 129.567 168.979C128.962 168.97 128.439 168.994 127.841 168.974C127.243 168.954 126.77 169.009 126.022 168.898C125.88 168.881 125.737 168.87 125.604 168.866C125.471 168.862 125.352 168.865 125.257 168.875C123.944 168.962 122.404 168.975 120.728 168.911C118.433 168.896 116.053 168.852 113.755 168.842C113.08 168.85 112.443 168.873 111.85 168.911C111.399 168.933 110.926 168.948 110.434 168.956C110.057 168.963 109.696 168.942 109.76 169.064C109.823 169.185 109.259 169.109 108.933 169.087C107.814 169.028 106.671 168.948 105.516 168.849C104.378 168.741 103.262 168.678 102.237 168.664C101.496 168.655 100.732 168.686 99.7801 168.521C99.8164 168.459 99.8526 168.398 100.06 168.334C99.2833 168.158 98.3972 168.007 97.475 167.893C96.5527 167.779 95.6207 167.705 94.7562 167.677L93.564 167.345C93.2705 167.305 92.9708 167.277 92.6832 167.261C92.3957 167.245 92.1262 167.241 91.8912 167.251C91.7097 167.256 91.4884 167.243 91.268 167.216C91.0476 167.189 90.843 167.148 90.6916 167.102C90.4652 167.044 90.1887 166.993 89.8967 166.957C89.6046 166.921 89.3101 166.901 89.0499 166.899C88.2308 166.863 87.3564 166.779 86.5163 166.657C86.2983 166.585 86.1617 166.511 86.1233 166.444C86.085 166.376 86.1466 166.319 86.3005 166.278C86.5487 166.206 86.688 166.114 86.7101 166.008C86.7322 165.902 86.6366 165.784 86.429 165.661C86.3227 165.585 86.2872 165.514 86.3246 165.451C86.362 165.388 86.4716 165.334 86.6466 165.293C87.3001 165.106 87.1253 165 86.0561 164.689C85.8825 164.637 85.6731 164.588 85.4413 164.546C85.2096 164.504 84.9605 164.469 84.7099 164.444C84.1219 164.394 83.5419 164.356 82.9806 164.332C82.6649 164.293 82.3412 164.324 81.9774 164.309C80.1586 164.233 79.8924 164.111 79.3034 163.846L78.8741 163.656C78.0779 163.502 77.2072 163.373 76.3246 163.281C75.442 163.188 74.5696 163.133 73.7702 163.119C73.4524 163.118 73.0871 163.092 72.7302 163.044C71.5688 162.899 70.3927 162.798 69.2797 162.748C68.5861 162.721 67.8385 162.649 67.1266 162.542C66.4147 162.434 65.7687 162.296 65.2664 162.144C64.8152 162.007 64.2249 161.883 63.5777 161.791C62.82 161.697 62.7498 161.587 63.1729 161.502C63.596 161.417 64.3047 161.308 64.9337 161.219C65.1526 161.188 65.2882 161.139 65.3254 161.076C65.3627 161.013 65.3001 160.939 65.1447 160.863C65.0449 160.731 65.0276 160.607 65.0932 160.492C65.1283 160.444 65.1041 160.39 65.0222 160.332C64.9404 160.274 64.8028 160.214 64.6187 160.156C64.4346 160.098 64.2084 160.043 63.9552 159.996C63.702 159.949 63.4277 159.909 63.1509 159.881C61.9828 159.737 60.8463 159.596 59.6551 159.49C59.1559 159.44 58.6572 159.378 58.1713 159.306C57.1766 159.128 56.1125 158.98 55.0407 158.871C54.532 158.822 54.0347 158.737 53.6563 158.634C52.463 158.355 51.3635 158.063 50.3776 157.762C50.14 157.668 49.8291 157.577 49.4643 157.494C49.0996 157.411 48.6889 157.337 48.2581 157.278C47.9109 157.235 47.6282 157.14 47.3605 157.077C47.166 156.932 47.1452 156.797 47.3001 156.685C47.4551 156.574 47.7806 156.49 48.2462 156.441C48.6877 156.382 49.1009 156.314 49.4825 156.241C49.9426 156.183 50.4895 156.148 51.103 156.138C51.8295 156.106 52.3668 156.017 52.6447 155.881C50.6557 155.634 48.7643 155.281 47.021 155.363L45.6964 155.14C45.7491 155.05 45.7953 154.973 45.8381 154.9C46.1532 154.769 46.2516 154.603 46.125 154.416C46.0206 154.326 46.0301 154.244 46.1523 154.178C46.2745 154.113 46.5051 154.066 46.8209 154.043C48.6915 153.802 50.8547 153.64 52.6088 153.368C53.1588 153.317 53.8027 153.294 54.5133 153.299C55.2008 153.283 55.172 153.16 54.3809 153.008C53.9368 152.929 53.4842 152.853 53.0247 152.781C50.9986 152.768 50.1732 153.132 47.8611 153.031L46.7895 152.552C46.4997 152.544 46.2184 152.541 45.9475 152.543L42.0706 152.738C41.7477 152.747 41.4963 152.781 41.3451 152.834C41.1939 152.887 41.1488 152.957 41.215 153.038C41.2412 153.136 41.1878 153.226 41.0567 153.305C40.9722 153.36 41.0263 153.433 41.2071 153.509C41.6147 153.678 41.0917 153.703 40.7614 153.746C40.677 153.75 40.5797 153.75 40.475 153.745C40.3704 153.74 40.2606 153.73 40.1519 153.717C40.0432 153.703 39.9379 153.686 39.842 153.666C39.7462 153.646 39.6616 153.624 39.5934 153.601C39.0114 153.44 38.5024 153.269 37.9304 153.091C38.3365 152.92 37.8587 152.64 38.4924 152.486C38.5633 152.455 38.5916 152.417 38.5757 152.375C38.5599 152.333 38.5 152.288 38.4 152.241C38.1419 152.122 38.019 152.005 38.0437 151.903C38.0683 151.801 38.2396 151.718 38.5403 151.661L38.5766 151.6C37.7835 151.394 37.9936 151.211 37.6822 150.994L36.9193 150.851C35.0213 150.509 35.018 150.514 33.3839 150.527C33.0545 150.397 33.473 150.377 33.7868 150.362L36.4151 150.216C38.1335 150.118 39.9018 150.05 41.8214 150.013C43.741 149.976 45.8811 149.853 47.8652 149.765C47.9655 149.758 48.0423 149.744 48.089 149.725C48.1357 149.706 48.151 149.682 48.1338 149.655C48.0549 149.625 47.9516 149.597 47.8317 149.572C47.7117 149.547 47.5781 149.525 47.4406 149.509C46.8092 149.431 46.1613 149.38 45.4885 149.315L44.2341 149.201L43.8482 149.052C43.5971 148.961 43.4255 148.85 43.0914 148.785C42.8161 148.737 42.5172 148.7 42.2259 148.678C41.9346 148.657 41.6616 148.652 41.4352 148.664C40.8076 148.693 40.2398 148.737 39.6405 148.776C39.0411 148.815 38.7108 148.858 38.1911 148.877C37.1352 148.886 36.1147 148.909 35.1341 148.946C34.3082 149.035 33.5442 149.14 32.8471 149.26C32.4122 149.308 32.0055 149.365 31.2629 149.303C30.9106 149.247 30.6067 149.173 30.4051 149.094C30.2035 149.016 30.1173 148.938 30.1617 148.874C30.2015 148.824 30.3143 148.785 30.4894 148.759C30.6645 148.734 30.8961 148.724 31.1624 148.729C31.9078 148.72 32.5971 148.689 33.2164 148.637C34.0783 148.543 35.1276 148.502 36.303 148.518C36.7016 148.531 36.9688 148.481 37.3175 148.464C37.6662 148.448 37.9616 148.407 38.3503 148.437C39.558 148.515 40.137 148.395 40.8607 148.318C41.1057 148.283 41.2575 148.228 41.2994 148.157C41.3413 148.087 41.2717 148.003 41.0982 147.917C40.7641 147.746 40.3555 147.573 39.8787 147.402C39.6333 147.318 39.3189 147.238 38.9601 147.169C38.6014 147.1 38.208 147.043 37.811 147.003C37.5733 146.897 37.4466 146.794 37.4421 146.702C37.4377 146.609 37.5557 146.531 37.7855 146.474C38.3712 146.343 38.8904 146.211 40.2026 146.284C40.8196 146.311 41.4002 146.317 41.9215 146.299C43.0776 146.276 44.4112 146.328 45.7966 146.451C46.155 146.482 46.5073 146.504 46.8431 146.515C49.2381 146.59 51.5201 146.628 53.8086 146.655C55.021 146.668 56.2432 146.664 57.5089 146.701C60.4769 146.782 63.1786 146.74 66.0434 146.767C67.5438 146.78 68.8868 146.726 70.0019 146.606C70.219 146.566 70.4055 146.519 70.5592 146.466C69.8203 146.327 69.0086 146.217 68.202 146.146C67.3953 146.076 66.6207 146.047 65.9524 146.063C65.585 146.102 65.1101 146.109 64.5807 146.083C64.0513 146.058 63.4882 146.001 62.9542 145.918V145.918L64.5068 145.872C65.5363 145.85 66.5908 145.843 67.5921 145.812C69.1828 145.758 70.6571 145.672 72.3043 145.637C73.6343 145.605 74.8243 145.523 75.8372 145.394C76.569 145.3 77.4047 145.233 78.3274 145.195C78.9833 145.174 78.9833 145.174 79.4026 144.981C79.07 144.857 78.6398 144.839 78.2346 144.837C75.8052 144.758 73.4932 144.745 71.3458 144.796C70.2623 144.8 69.3011 144.853 68.5084 144.952C68.3142 144.994 67.8176 144.974 67.419 144.96C66.1693 144.94 64.975 144.946 63.8502 144.978C62.2952 145.032 60.5633 145.02 58.7218 144.94C58.3726 144.843 58.7746 144.851 58.7943 144.818C60.2206 144.756 61.6186 144.684 63.0732 144.631C63.4708 144.612 63.8958 144.603 64.3435 144.603C66.0147 144.636 67.4074 144.545 68.3264 144.344C68.3725 144.266 68.9771 144.276 69.2442 144.225C69.3756 144.181 69.4632 144.13 69.5042 144.072C69.115 143.928 68.6749 143.928 68.3362 143.927C67.3531 143.943 66.4073 143.974 65.5035 144.018C64.6632 144.061 63.7332 144.072 62.7385 144.052C62.0044 144.033 61.3768 144.063 60.6361 144.055C60.2343 144.038 59.8184 144.01 59.3968 143.973C59.8662 143.873 60.5042 143.811 61.266 143.792C61.8437 143.732 62.566 143.714 62.6583 143.559C62.3855 143.447 62.0816 143.445 61.8375 143.457C61.3294 143.457 60.8387 143.464 60.3679 143.478C59.3695 143.51 58.2886 143.51 57.1478 143.479C56.547 143.468 55.977 143.471 55.4473 143.49C54.2467 143.514 53.0961 143.569 51.9968 143.594C49.745 143.619 47.6912 143.711 45.5275 143.76C45.046 143.772 44.6143 143.814 43.9796 143.741C43.3449 143.669 43.3167 143.659 43.2417 143.614C43.0641 143.539 43.0103 143.466 43.0914 143.411C43.2173 143.359 43.4626 143.33 43.7835 143.329C45.7177 143.246 47.5523 143.131 49.2757 142.982C50.0341 142.952 50.6986 142.892 51.2461 142.802C51.6803 142.74 52.1953 142.7 52.775 142.681C53.6182 142.636 54.4972 142.604 55.4085 142.583C55.8325 142.572 56.193 142.539 56.4689 142.486C56.7447 142.433 56.9303 142.361 57.0147 142.274L55.8975 141.987C55.722 141.973 55.5479 141.962 55.3759 141.952L46.1034 142.159L45.1851 142.165C44.1787 142.148 43.9327 142.105 42.978 141.772C45.1568 141.694 46.8695 141.465 47.9456 141.109C47.687 141.071 47.4219 141.038 47.1564 141.012C45.4152 140.927 43.7692 140.905 42.2819 140.945C41.3984 140.949 40.49 140.938 39.5783 140.933C39.8449 140.769 40.8664 140.818 41.5322 140.781C43.123 140.723 44.5297 140.603 45.7074 140.426C46.1134 140.357 46.6214 140.313 47.208 140.295C47.7951 140.289 48.2855 140.248 48.6366 140.173C48.9877 140.099 49.1887 139.995 49.2222 139.87C49.2775 139.757 49.3967 139.651 49.578 139.556C49.2573 139.42 48.7481 139.29 48.1459 139.19C47.5437 139.09 46.89 139.027 46.3074 139.013C45.0636 138.957 43.7735 138.866 42.47 138.741C41.8207 138.678 41.184 138.642 40.6013 138.635C40.0874 138.63 39.5032 138.584 38.938 138.506C38.3728 138.427 37.8574 138.32 37.4706 138.2C36.9485 138.051 36.4612 137.901 35.974 137.751C35.4868 137.602 34.9214 137.412 34.3526 137.228C33.8511 137.199 33.3628 137.181 32.8943 137.173C32.5298 137.18 32.1044 137.16 31.6684 137.115C31.2324 137.071 30.8039 137.004 30.4336 136.922V136.922C30.6508 136.841 30.8964 136.77 31.155 136.677C30.8 136.554 30.5426 136.428 30.3984 136.307C30.2543 136.187 30.2265 136.074 30.3167 135.976C30.3694 135.887 29.9835 135.737 29.8501 135.619C29.6784 135.518 29.6462 135.423 29.7576 135.347C29.869 135.271 30.1188 135.218 30.4744 135.195C30.9154 135.152 31.2743 135.088 31.5364 135.004C31.6231 134.982 31.6672 134.953 31.6648 134.918C31.6623 134.883 31.6133 134.844 31.5223 134.804C31.4312 134.764 31.3011 134.725 31.1437 134.69C30.9863 134.655 30.8067 134.626 30.6213 134.604C30.0534 134.543 29.4894 134.504 28.9617 134.488C28.0527 134.459 27.1824 134.441 26.3509 134.434C25.4313 134.422 24.4083 134.353 23.3857 134.234C22.4701 134.12 21.6493 134.018 21.2016 133.802C20.754 133.585 20.0382 133.592 19.4878 133.434C19.797 133.292 20.3465 133.193 21.0809 133.148C21.5615 133.132 21.9626 133.089 22.2586 133.023C22.5546 132.957 22.7389 132.868 22.7997 132.764L21.1288 132.324C19.7944 132.117 19.0561 132.276 17.6142 132.193L19.0998 132.031C19.1297 132.015 19.1409 131.996 19.1328 131.975C18.9886 131.647 18.7591 131.576 17.2404 131.394L16.3881 131.289L15.039 131.163C14.8229 131.096 14.6735 131.026 14.6056 130.96C14.5377 130.894 14.5537 130.834 14.6521 130.787C14.8498 130.708 14.9098 130.606 14.8269 130.492C14.696 130.417 14.6852 130.347 14.7963 130.295C14.9074 130.243 15.1334 130.213 15.4351 130.209C15.6759 130.203 15.6938 130.116 15.8248 130.066C15.9549 129.998 16.1777 129.946 16.4778 129.913C16.778 129.88 17.1485 129.867 17.5643 129.876C18.79 129.882 19.9415 129.857 20.9983 129.799L20.8088 129.776C21.9103 129.826 22.9401 129.833 23.848 129.794C24.7578 129.745 25.9255 129.777 26.8919 129.747C27.6786 129.754 28.2776 129.687 28.5617 129.56C28.8368 129.438 29.8367 129.467 30.6024 129.49C31.0559 129.505 31.4943 129.511 31.9128 129.509C32.4745 129.481 33.1768 129.507 33.9026 129.582C34.1204 129.605 34.3349 129.617 34.5256 129.617C36.3707 129.649 38.2125 129.686 40.0327 129.702C40.4529 129.693 40.9455 129.715 41.4529 129.765C41.6661 129.787 41.8737 129.796 42.0476 129.791C44.9237 129.741 48.1692 129.868 50.9888 129.799C51.3305 129.783 51.7088 129.78 52.1131 129.789C53.0214 129.83 53.8101 129.804 54.3596 129.715C54.6561 129.668 55.0362 129.642 55.4757 129.639C55.9151 129.636 56.4043 129.655 56.912 129.697C57.7569 129.751 58.5378 129.757 59.1723 129.714C60.4093 129.674 61.7102 129.657 63.0648 129.664C63.4798 129.672 63.8446 129.656 64.131 129.619C64.4174 129.582 64.6176 129.524 64.7162 129.451C64.3835 129.326 64.0198 129.311 63.6744 129.322C62.3358 129.294 61.0004 129.26 59.6867 129.246C58.5109 129.208 57.3827 129.196 56.3187 129.211C55.7904 129.228 55.1311 129.189 54.4848 129.103C53.6927 128.995 52.8769 128.941 52.2023 128.952C51.7022 128.955 51.1743 128.946 50.6262 128.924C50.2754 128.898 49.9159 128.854 49.5844 128.795C49.4529 128.77 49.3098 128.748 49.1641 128.732C49.0185 128.716 48.8737 128.706 48.7389 128.702C48.604 128.699 48.4819 128.701 48.3807 128.71C48.2796 128.719 48.2014 128.735 48.1511 128.755C47.6437 128.925 46.509 128.838 45.5374 128.819C44.0814 128.532 42.9978 128.702 41.637 128.539C41.5294 128.529 41.4233 128.522 41.3254 128.52C41.2274 128.518 41.1396 128.521 41.0673 128.529C38.4338 128.626 35.3645 128.545 32.5996 128.579C32.2947 128.584 31.9408 128.567 31.5781 128.53C29.2078 128.286 26.9289 128.216 25.1869 128.335C24.9749 128.346 24.7338 128.347 24.4745 128.337C23.2834 128.24 22.1444 128.201 21.1526 128.224C19.5981 128.217 18.1036 128.223 16.5241 128.2C15.4354 128.168 14.4803 128.202 13.7545 128.299C13.7314 128.338 13.2479 128.296 12.8776 128.292C12.6646 128.194 12.4799 128.105 12.2603 128.018C12.064 127.911 11.77 127.802 11.3982 127.699C11.0264 127.597 10.5856 127.502 10.1055 127.423C9.28469 127.321 9.2026 127.174 9.77696 127.12C11.2574 126.94 13.1189 126.867 15.2248 126.904C16.9851 126.908 18.7771 126.914 20.5624 126.933C21.6038 126.948 22.7015 126.982 23.7146 126.989C24.0564 127.002 24.4076 127.021 24.7644 127.047C25.2023 127.084 25.6274 127.104 26.0169 127.106C27.2675 127.075 28.6632 127.102 30.1374 127.187C30.6774 127.205 31.1959 127.211 31.6852 127.205C32.8429 127.182 34.0979 127.199 35.417 127.255C36.2369 127.287 37.0319 127.304 37.7937 127.305C38.0628 127.308 38.2819 127.282 38.541 127.302C40.8221 127.513 42.4373 127.361 44.4902 127.442C45.488 127.464 46.4413 127.464 47.3367 127.442C49.084 127.443 50.8801 127.466 52.7176 127.511C55.1475 127.585 57.3993 127.559 59.7194 127.59C60.1775 127.596 60.6198 127.595 61.043 127.587C63.102 127.53 65.3384 127.542 67.6976 127.623C68.2333 127.634 68.7144 127.62 69.1109 127.581C69.5073 127.541 69.8106 127.478 70.0016 127.394C70.0824 127.337 70.0301 127.262 69.8546 127.185C69.5634 127.086 69.2346 126.989 68.8735 126.896L55.741 126.584C55.1894 126.567 54.6515 126.559 54.1301 126.557C52.5963 126.555 51.0154 126.53 49.3951 126.484C47.794 126.441 46.2645 126.449 44.7134 126.436C44.2565 126.432 43.7875 126.422 43.3083 126.405C40.0696 126.278 36.9115 126.2 33.8562 126.172C32.5709 126.168 31.1823 126.11 29.8719 126.091C28.5615 126.072 26.7696 126.065 25.2151 126.058L20.4025 126.059C19.4559 126.055 18.5342 126.066 17.6159 126.072C16.5015 125.665 16.1174 125.57 14.6303 125.392C14.1216 125.326 13.6041 125.287 13.1386 125.279C11.6624 125.311 9.81009 125.177 8.4102 125.195C7.56549 125.186 6.84871 125.231 6.33325 125.325C5.88579 125.4 5.37412 125.458 4.80613 125.501C3.25021 125.153 3.11309 124.927 4.2835 124.839C4.6006 124.818 5.03739 124.825 5.26638 124.781C5.39776 124.755 5.57725 124.74 5.79054 124.737C6.00383 124.735 6.24501 124.745 6.49518 124.766C7.28472 124.823 8.02475 124.837 8.64101 124.805C9.22098 124.763 9.9319 124.765 10.7052 124.81C11.2735 124.88 11.773 124.781 12.2644 124.752C12.7558 124.724 13.1591 124.672 13.9267 124.749C14.0673 124.764 14.2068 124.774 14.3346 124.776C14.4625 124.778 14.5752 124.774 14.6641 124.763C15.4885 124.713 16.4723 124.718 17.5356 124.778C19.1663 124.837 20.6963 124.839 22.0726 124.785C22.8964 124.737 23.5989 124.653 24.1524 124.535C24.3033 124.495 24.5273 124.471 24.803 124.466C26.1878 124.49 27.6913 124.583 29.2167 124.738C29.7914 124.8 30.3653 124.849 30.9262 124.884C32.079 124.962 33.194 125.005 34.2382 125.013C35.7554 125.015 37.3351 125.045 38.9633 125.103C39.968 125.135 40.9362 125.147 41.8563 125.139C42.802 125.135 43.8117 125.159 44.8625 125.212C45.9076 125.256 46.8285 125.231 47.5143 125.141C47.7402 125.092 47.9221 125.035 48.0566 124.969C46.5265 124.756 44.9441 124.647 43.6279 124.665C43.1279 124.651 42.7128 124.665 42.186 124.582L42.1695 124.61C42.0647 124.628 41.9065 124.632 41.7252 124.622C41.5438 124.612 41.352 124.588 41.1862 124.554V124.554C41.2488 124.448 41.3082 124.348 41.3511 124.276C42.3539 124.289 43.3276 124.288 44.2673 124.273C45.0593 124.251 46.1346 124.438 46.8201 124.368C48.1574 124.456 49.0088 124.334 50.208 124.37C51.4071 124.405 52.7279 124.52 53.9271 124.555C54.9735 124.575 55.9895 124.579 56.9695 124.568C57.3078 124.553 57.6977 124.556 58.1154 124.579C58.7026 124.62 59.2488 124.627 59.6913 124.599C60.1338 124.57 60.4547 124.507 60.6174 124.417C60.4642 124.332 60.2579 124.223 60.0199 124.11C60.4577 124.017 61.1225 123.978 61.9159 123.998L63.0369 123.994C63.3339 123.996 63.561 123.971 63.6711 123.924C63.7813 123.876 63.7661 123.81 63.6286 123.739C61.5031 123.38 61.4248 123.34 59.8647 123.571L57.7934 123.464L57.8283 123.462ZM85.8451 124.448L85.6873 124.428L85.8451 124.448ZM343.978 162.623L343.942 162.684L343.981 162.617L344.328 162.66L344.351 162.621L343.978 162.623ZM293.557 135.799C293.067 135.732 292.571 135.671 292.074 135.615C291.943 135.607 291.822 135.605 291.718 135.61C291.615 135.614 291.534 135.626 291.481 135.643C291.441 135.71 291.719 135.756 291.971 135.788C292.29 135.83 292.615 135.857 292.914 135.865C293.213 135.874 293.474 135.864 293.671 135.837L293.956 135.813L293.557 135.799ZM40.7375 152.071C41.0607 152.082 41.3671 152.084 41.6493 152.076C42.9012 152.022 44.0998 151.944 45.3833 151.894C47.0028 151.767 48.8637 151.715 50.8962 151.741C51.6903 151.753 52.3611 151.712 52.8305 151.622C53.1114 151.573 53.4741 151.545 53.8962 151.539L59.2696 151.392C59.6017 151.362 59.8889 151.319 60.1243 151.265C59.6508 151.206 59.3351 151.167 59.1457 151.144C58.7526 151.137 58.4148 151.155 58.1661 151.196C57.8989 151.264 57.4473 151.292 56.9009 151.272C56.3494 151.256 55.8115 151.247 55.29 151.246C54.3052 151.249 53.3138 151.264 52.3257 151.273C51.9412 151.464 50.8066 151.377 49.835 151.358L49.0844 151.367C46.6309 151.466 44.2872 151.602 42.0648 151.775C41.6352 151.805 41.2652 151.851 40.966 151.914C40.8533 151.963 40.8172 152.024 40.8605 152.092L40.7027 152.073L40.7375 152.071ZM150.301 170.358C150.897 170.372 151.516 170.398 152.152 170.438C152.641 170.479 153.119 170.504 153.565 170.512C156.068 170.555 158.676 170.654 161.354 170.808C161.704 170.831 162.04 170.842 162.35 170.842L164.542 170.802C165.233 170.781 165.246 170.758 164.743 170.463C164.326 170.406 163.904 170.354 163.48 170.307C163.228 170.275 162.817 170.225 162.721 170.272C162.136 170.403 161.068 170.318 160.169 170.291C157.568 170.219 154.886 170.114 152.26 170.028C151.704 170.007 151.167 169.996 150.652 169.996C150.332 169.991 150.041 170 149.79 170.02C149.717 170.023 149.655 170.029 149.61 170.039C149.565 170.048 149.536 170.062 149.527 170.077C149.517 170.093 149.527 170.111 149.556 170.13C149.584 170.149 149.63 170.169 149.691 170.187C149.906 170.253 150.154 170.316 150.428 170.374L150.301 170.358ZM169.355 127.517L171.917 127.482C172.224 127.478 172.485 127.439 172.814 127.455C174.568 127.509 176.193 127.494 177.618 127.411C178.103 127.378 178.671 127.371 179.29 127.392C181.186 127.453 182.974 127.455 184.606 127.399C185.661 127.388 186.648 127.35 187.553 127.286C187.623 127.272 187.667 127.252 187.681 127.228C187.695 127.204 187.68 127.176 187.636 127.147C187.624 127.129 187.593 127.109 187.545 127.09C187.496 127.07 187.432 127.051 187.355 127.034C187.278 127.016 187.192 127.001 187.101 126.989C187.01 126.977 186.918 126.968 186.83 126.964C185.686 126.878 184.601 126.848 183.662 126.876C182.792 126.91 181.855 126.92 180.866 126.906C179.919 126.902 179.277 127.014 178.107 126.929C177.613 126.901 177.176 126.91 176.872 126.955C176.259 127.029 175.404 127.033 174.459 126.967C173.893 126.933 173.353 126.918 172.858 126.923C171.657 126.948 170.51 126.997 169.398 127.044C169.047 127.055 168.671 127.057 168.277 127.049L162.706 126.956C161.368 126.928 160.032 126.894 158.719 126.88C157.644 126.851 156.644 126.86 155.754 126.907C154.805 126.957 153.771 126.977 152.669 126.967C150.959 126.994 149.258 127.004 147.396 127.001C146.209 127.003 144.993 126.996 143.753 126.974C143.125 126.945 142.592 126.968 142.257 127.039C142.053 127.097 141.573 127.05 141.174 127.036C139.048 126.906 137.054 126.875 135.331 126.946C135.111 126.957 134.87 126.961 134.612 126.958C132.953 126.956 131.234 126.94 129.642 126.94C129.222 126.945 128.828 126.96 128.463 126.985C128.502 127.025 128.613 127.068 128.774 127.106C128.935 127.144 129.132 127.173 129.326 127.187C130.832 127.299 132.286 127.358 133.628 127.362C135.86 127.348 138.199 127.38 140.62 127.457C142.498 127.536 144.21 127.519 145.63 127.409C146.739 127.327 148.183 127.358 149.712 127.497C150.366 127.563 151.002 127.589 151.531 127.573C152.04 127.55 152.624 127.556 153.25 127.588C154.568 127.65 155.836 127.679 157.028 127.674C158.194 127.651 159.281 127.589 160.479 127.57C161.676 127.551 163.499 127.562 164.976 127.53C166.452 127.498 167.912 127.493 169.355 127.517ZM63.1825 124.263C63.3178 124.435 63.7965 124.542 64.3116 124.587C66.0871 124.791 67.8425 124.878 69.283 124.833C70.0611 124.77 71.0985 124.794 72.1912 124.901C73.4635 125.011 74.6527 125.029 75.5493 124.952C75.769 124.939 75.9371 124.91 76.0389 124.869C76.0587 124.836 76.0949 124.775 76.1015 124.764C76.0073 124.736 75.8918 124.709 75.7639 124.687C75.6359 124.665 75.499 124.648 75.3637 124.637L69.4823 124.44L68.4574 124.396C66.5854 124.283 64.8016 124.238 63.1825 124.263V124.263ZM74.7511 126.985C75.669 127.266 75.6722 127.261 76.1425 127.325C78.4112 127.592 80.6783 127.736 82.6741 127.74C83.1177 127.739 83.4942 127.712 83.7716 127.661C83.9144 127.654 84.0052 127.632 84.0244 127.599C84.0435 127.567 83.9894 127.527 83.8738 127.488L83.1439 127.29C81.8183 127.205 80.5118 127.136 79.2321 127.086C77.7422 127.027 76.4219 127.025 74.8773 127.001L74.7511 126.985ZM150.191 169.115C151.047 169.501 151.05 169.496 152.482 169.595C153.48 169.666 154.448 169.708 155.357 169.719C156.468 169.731 157.607 169.752 158.715 169.77C158.986 169.783 159.215 169.772 159.359 169.742C159.502 169.711 159.55 169.662 159.492 169.604C159.346 169.541 159.119 169.48 158.846 169.431C158.574 169.382 158.272 169.348 157.991 169.334L157.386 169.325C156.652 169.306 155.89 169.277 155.181 169.273C154.721 169.289 154.188 169.276 153.623 169.237C153.059 169.197 152.479 169.13 151.928 169.043L150.191 169.115ZM79.3183 124.768C79.5467 124.835 79.805 124.899 80.0863 124.959C81.1757 125.124 82.3287 125.218 83.3192 125.222C83.7876 125.232 84.2159 125.195 84.6927 125.249C85.548 125.319 86.3768 125.357 87.1345 125.36C87.1345 125.36 87.3469 125.344 87.4167 125.341L87.5618 125.096C87.2031 125.04 86.829 124.993 86.4568 124.959C85.2077 124.894 83.9802 124.85 82.7561 124.8C81.5319 124.75 81.1051 124.727 80.3045 124.705C79.9474 124.717 79.6171 124.738 79.3183 124.768ZM52.268 155.201L53.9027 155.702C54.4317 155.746 54.9258 155.753 55.31 155.724C55.6942 155.696 55.9473 155.631 56.0309 155.542C56.1655 155.5 56.179 155.437 56.0685 155.368C55.958 155.299 55.732 155.228 55.4381 155.17C55.1552 155.101 54.8323 155.039 54.4893 154.989C54.1462 154.938 53.7905 154.899 53.4441 154.875L52.268 155.201ZM65.8782 152.706C64.809 152.621 63.7864 152.587 62.8885 152.605C62.3228 152.654 61.5563 152.639 60.7461 152.56C59.2727 152.404 57.8523 152.361 56.7848 152.44C56.7848 152.44 56.7452 152.507 56.5642 152.526C56.3833 152.546 57.1009 152.593 57.2588 152.612C58.4165 152.66 59.5808 152.697 60.5873 152.714C61.2121 152.713 61.873 152.729 62.5587 152.761C63.5021 152.81 64.3967 152.826 65.2077 152.808C65.2077 152.808 65.5215 152.793 65.8749 152.712L65.8782 152.706ZM180.059 126.609C179.548 126.515 178.995 126.438 178.439 126.385C177.884 126.331 177.341 126.303 176.853 126.301C176.478 126.297 176.175 126.321 175.992 126.372C175.808 126.423 175.754 126.497 175.839 126.582C176.218 126.629 176.723 126.692 177.007 126.727C177.992 126.723 178.832 126.678 180.059 126.609ZM275.653 134.561C275.243 134.485 274.792 134.427 274.351 134.393C273.909 134.36 273.495 134.352 273.156 134.371C272.982 134.379 273.1 134.466 273.071 134.516C273.051 134.527 273.051 134.541 273.071 134.557C273.091 134.572 273.13 134.588 273.183 134.603C273.237 134.618 273.303 134.632 273.375 134.643C273.447 134.653 273.522 134.661 273.593 134.664C274.037 134.697 274.457 134.706 274.814 134.692C275.171 134.678 275.455 134.641 275.64 134.583L275.653 134.561ZM282.058 135.647C281.995 135.602 281.86 135.555 281.678 135.515C281.497 135.475 281.28 135.444 281.069 135.429C280.696 135.427 280.357 135.439 280.065 135.466C279.747 135.486 279.976 135.616 280.404 135.693C280.586 135.724 280.78 135.748 280.971 135.763C281.162 135.779 281.345 135.785 281.505 135.781C281.665 135.778 281.797 135.765 281.892 135.744C281.987 135.722 282.042 135.693 282.052 135.658L282.058 135.647ZM95.9456 125.245C94.99 125.085 94.2545 125.125 93.4455 125.061C92.6364 124.996 92.4371 124.989 92.5455 125.092C92.6539 125.195 93.2085 125.175 93.5558 125.218C94.025 125.275 94.497 125.307 94.919 125.312C95.3411 125.317 95.6966 125.294 95.9456 125.245V125.245ZM295.071 152.344C294.565 152.308 294.069 152.282 293.591 152.268C293.528 152.283 293.488 152.302 293.475 152.325C293.461 152.348 293.474 152.374 293.512 152.401C293.512 152.401 293.836 152.483 294.025 152.507C294.723 152.587 294.757 152.472 295.071 152.344V152.344ZM366.608 167.265C366.951 167.373 367.111 167.447 367.385 167.499C367.511 167.517 367.641 167.53 367.766 167.537C367.891 167.544 368.007 167.545 368.106 167.54C368.226 167.509 368.255 167.461 368.185 167.407C368.185 167.407 367.836 167.31 367.703 167.305C367.324 167.282 366.956 167.269 366.608 167.265V167.265ZM79.6801 124.329C78.954 124.239 78.2594 124.153 77.7567 124.258C78.9097 124.371 78.9097 124.371 79.6801 124.329ZM91.4406 125.356C90.7074 125.163 90.2772 125.146 89.9252 125.168C89.8504 125.174 89.8009 125.186 89.7842 125.203C89.7675 125.221 89.7845 125.242 89.8326 125.264C89.8807 125.286 89.9574 125.308 90.0509 125.326C90.1445 125.344 90.2499 125.357 90.3512 125.364C90.7336 125.37 91.0982 125.367 91.4406 125.356V125.356ZM129.177 125.437C129.193 125.409 129.213 125.376 129.024 125.352C128.974 125.34 128.916 125.33 128.855 125.323C128.794 125.315 128.732 125.311 128.677 125.309C128.677 125.309 128.657 125.343 128.644 125.365L129.177 125.437ZM155.382 171.621L154.96 171.646L155.15 171.67L155.65 171.684L155.382 171.621ZM303.868 135.213C303.71 135.193 303.552 135.174 303.529 135.213C303.496 135.219 303.475 135.227 303.469 135.238C303.462 135.249 303.471 135.261 303.493 135.274C303.493 135.274 303.714 135.301 303.808 135.313L303.868 135.213ZM279.284 135.524C279.18 135.522 279.087 135.525 279.009 135.532C279.009 135.532 278.989 135.565 278.989 135.565L279.305 135.604L279.284 135.524ZM65.0444 143.478C64.9225 143.458 64.7932 143.442 64.6656 143.431L64.5077 143.411C64.5077 143.411 64.6773 143.468 64.772 143.48C64.8667 143.492 64.9431 143.477 65.0444 143.478Z" fill="#DF6951"/>
</g>
<path d="M57.036 65.94C62.916 65.94 68.376 67.032 73.416 69.216V84.756H68.712L64.848 72.324C63.336 72.1 61.796 71.988 60.228 71.988C53.452 71.988 48.132 74.088 44.268 78.288C40.404 82.488 38.472 88.592 38.472 96.6C38.472 113.008 45.164 121.212 58.548 121.212C59.388 121.212 60.2 121.184 60.984 121.128V105.168L51.408 102.228V98.364H80.892V102.228L74.676 105.168V123.144C73.556 123.704 72.24 124.236 70.728 124.74C69.216 125.244 67.592 125.664 65.856 126C64.12 126.392 62.356 126.7 60.564 126.924C58.772 127.148 57.036 127.26 55.356 127.26C45.444 127.26 37.828 124.6 32.508 119.28C27.188 113.96 24.528 106.4 24.528 96.6C24.528 86.8 27.328 79.24 32.928 73.92C38.528 68.6 46.564 65.94 57.036 65.94ZM81.7753 104.496C81.7753 97.888 83.6233 92.624 87.3193 88.704C91.0713 84.728 96.1393 82.74 102.523 82.74C109.019 82.74 113.919 84.952 117.223 89.376C120.583 93.8 122.263 99.26 122.263 105.756H94.7113C95.1033 109.9 96.5873 113.484 99.1633 116.508C101.739 119.476 105.043 120.96 109.075 120.96C112.099 120.96 115.347 120.316 118.819 119.028L120.583 123.816C115.375 126.112 110.279 127.26 105.295 127.26C98.0713 127.26 92.3313 125.16 88.0753 120.96C83.8753 116.704 81.7753 111.216 81.7753 104.496ZM94.7113 100.548L108.907 99.624C108.907 98.28 108.823 97.048 108.655 95.928C108.487 94.752 108.011 93.352 107.227 91.728C105.827 89.376 104.175 88.2 102.271 88.2C100.031 88.2 98.1833 89.348 96.7273 91.644C95.8873 93.044 95.3273 94.584 95.0473 96.264C94.7673 97.944 94.6553 99.372 94.7113 100.548ZM123.769 126V121.548L130.909 119.868V91.644H123.769V87.192L137.209 84H143.845V88.116C147.261 84.532 151.489 82.74 156.529 82.74C158.713 82.74 160.673 83.076 162.409 83.748C164.201 84.364 165.685 85.26 166.861 86.436C168.093 87.612 169.045 89.012 169.717 90.636C170.389 92.26 170.725 94.024 170.725 95.928V119.868L177.865 121.548V126H152.329V121.548L157.789 119.868V98.28C157.789 96.544 157.677 95.144 157.453 94.08C157.285 93.016 156.977 92.204 156.529 91.644C156.081 91.028 155.465 90.636 154.681 90.468C153.953 90.244 153.029 90.132 151.909 90.132C149.781 90.132 147.093 91.364 143.845 93.828V119.868L149.305 121.548V126H123.769ZM177.585 126V121.548L184.725 119.868V91.644H177.585V87.192L191.025 84H197.661V119.868L204.801 121.548V126H177.585ZM183.381 71.064C183.381 68.88 184.137 67.06 185.649 65.604C187.161 64.092 189.009 63.336 191.193 63.336C193.433 63.336 195.281 64.092 196.737 65.604C198.249 67.06 199.005 68.88 199.005 71.064C199.005 73.304 198.249 75.18 196.737 76.692C195.281 78.204 193.433 78.96 191.193 78.96C189.009 78.96 187.161 78.204 185.649 76.692C184.137 75.18 183.381 73.304 183.381 71.064ZM205.16 104.496C205.16 97.888 207.008 92.624 210.704 88.704C214.456 84.728 219.524 82.74 225.908 82.74C232.404 82.74 237.304 84.952 240.608 89.376C243.968 93.8 245.648 99.26 245.648 105.756H218.096C218.488 109.9 219.972 113.484 222.548 116.508C225.124 119.476 228.428 120.96 232.46 120.96C235.484 120.96 238.732 120.316 242.204 119.028L243.968 123.816C238.76 126.112 233.664 127.26 228.68 127.26C221.456 127.26 215.716 125.16 211.46 120.96C207.26 116.704 205.16 111.216 205.16 104.496ZM218.096 100.548L232.292 99.624C232.292 98.28 232.208 97.048 232.04 95.928C231.872 94.752 231.396 93.352 230.612 91.728C229.212 89.376 227.56 88.2 225.656 88.2C223.416 88.2 221.568 89.348 220.112 91.644C219.272 93.044 218.712 94.584 218.432 96.264C218.152 97.944 218.04 99.372 218.096 100.548ZM246.986 89.88V86.52L261.266 76.356H264.374V84.42L274.79 84V89.88H264.374V113.904C264.374 116.648 264.682 118.58 265.298 119.7C265.914 120.82 267.174 121.38 269.078 121.38C270.478 121.38 272.354 120.876 274.706 119.868L276.05 124.572C272.69 126.364 269.134 127.26 265.382 127.26C256.086 127.26 251.438 122.948 251.438 114.324V89.88H246.986ZM291.303 104.496C291.303 97.888 293.151 92.624 296.847 88.704C300.599 84.728 305.667 82.74 312.051 82.74C318.547 82.74 323.447 84.952 326.751 89.376C330.111 93.8 331.791 99.26 331.791 105.756H304.239C304.631 109.9 306.115 113.484 308.691 116.508C311.267 119.476 314.571 120.96 318.603 120.96C321.627 120.96 324.875 120.316 328.347 119.028L330.111 123.816C324.903 126.112 319.807 127.26 314.823 127.26C307.599 127.26 301.859 125.16 297.603 120.96C293.403 116.704 291.303 111.216 291.303 104.496ZM304.239 100.548L318.435 99.624C318.435 98.28 318.351 97.048 318.183 95.928C318.015 94.752 317.539 93.352 316.755 91.728C315.355 89.376 313.703 88.2 311.799 88.2C309.559 88.2 307.711 89.348 306.255 91.644C305.415 93.044 304.855 94.584 304.575 96.264C304.295 97.944 304.183 99.372 304.239 100.548ZM333.296 126V121.548L340.436 119.868V91.644H333.296V87.192L346.736 84H353.372V88.116C356.788 84.532 361.016 82.74 366.056 82.74C368.24 82.74 370.2 83.076 371.936 83.748C373.728 84.364 375.212 85.26 376.388 86.436C377.62 87.612 378.572 89.012 379.244 90.636C379.916 92.26 380.252 94.024 380.252 95.928V119.868L387.392 121.548V126H361.856V121.548L367.316 119.868V98.28C367.316 96.544 367.204 95.144 366.98 94.08C366.812 93.016 366.504 92.204 366.056 91.644C365.608 91.028 364.992 90.636 364.208 90.468C363.48 90.244 362.556 90.132 361.436 90.132C359.308 90.132 356.62 91.364 353.372 93.828V119.868L358.832 121.548V126H333.296ZM401.195 126V121.548L408.335 119.868V66.444H401.195V61.992L414.635 58.8H421.271V119.868L428.411 121.548V126H401.195ZM428.718 104.496C428.718 97.888 430.566 92.624 434.262 88.704C438.014 84.728 443.082 82.74 449.466 82.74C455.962 82.74 460.862 84.952 464.166 89.376C467.526 93.8 469.206 99.26 469.206 105.756H441.654C442.046 109.9 443.53 113.484 446.106 116.508C448.682 119.476 451.986 120.96 456.018 120.96C459.042 120.96 462.29 120.316 465.762 119.028L467.526 123.816C462.318 126.112 457.222 127.26 452.238 127.26C445.014 127.26 439.274 125.16 435.018 120.96C430.818 116.704 428.718 111.216 428.718 104.496ZM441.654 100.548L455.85 99.624C455.85 98.28 455.766 97.048 455.598 95.928C455.43 94.752 454.954 93.352 454.17 91.728C452.77 89.376 451.118 88.2 449.214 88.2C446.974 88.2 445.126 89.348 443.67 91.644C442.83 93.044 442.27 94.584 441.99 96.264C441.71 97.944 441.598 99.372 441.654 100.548ZM471.132 104.496C471.132 97.888 472.98 92.624 476.676 88.704C480.428 84.728 485.496 82.74 491.88 82.74C498.376 82.74 503.276 84.952 506.58 89.376C509.94 93.8 511.62 99.26 511.62 105.756H484.068C484.46 109.9 485.944 113.484 488.52 116.508C491.096 119.476 494.4 120.96 498.432 120.96C501.456 120.96 504.704 120.316 508.176 119.028L509.94 123.816C504.732 126.112 499.636 127.26 494.652 127.26C487.428 127.26 481.688 125.16 477.432 120.96C473.232 116.704 471.132 111.216 471.132 104.496ZM484.068 100.548L498.264 99.624C498.264 98.28 498.18 97.048 498.012 95.928C497.844 94.752 497.368 93.352 496.584 91.728C495.184 89.376 493.532 88.2 491.628 88.2C489.388 88.2 487.54 89.348 486.084 91.644C485.244 93.044 484.684 94.584 484.404 96.264C484.124 97.944 484.012 99.372 484.068 100.548ZM512.873 126V121.548L520.013 119.868V89.376H512.957V84.588L520.013 84.084V77.784C520.013 71.232 521.497 66.22 524.465 62.748C527.489 59.276 531.801 57.54 537.401 57.54C539.753 57.54 542.217 57.792 544.793 58.296C547.369 58.744 549.357 59.192 550.757 59.64L552.857 60.312C552.913 62.272 552.437 64.204 551.429 66.108C550.477 67.956 549.245 69.272 547.733 70.056L540.761 63C539.641 63 538.661 63.168 537.821 63.504C537.037 63.84 536.225 64.484 535.385 65.436C534.601 66.388 533.985 67.9 533.537 69.972C533.145 72.044 532.949 74.648 532.949 77.784V83.244L544.457 82.488V89.376H532.949V119.868L542.861 121.548V126H512.873ZM23.94 193.496C23.94 186.888 25.788 181.624 29.484 177.704C33.236 173.728 38.304 171.74 44.688 171.74C51.184 171.74 56.084 173.952 59.388 178.376C62.748 182.8 64.428 188.26 64.428 194.756H36.876C37.268 198.9 38.752 202.484 41.328 205.508C43.904 208.476 47.208 209.96 51.24 209.96C54.264 209.96 57.512 209.316 60.984 208.028L62.748 212.816C57.54 215.112 52.444 216.26 47.46 216.26C40.236 216.26 34.496 214.16 30.24 209.96C26.04 205.704 23.94 200.216 23.94 193.496ZM36.876 189.548L51.072 188.624C51.072 187.28 50.988 186.048 50.82 184.928C50.652 183.752 50.176 182.352 49.392 180.728C47.992 178.376 46.34 177.2 44.436 177.2C42.196 177.2 40.348 178.348 38.892 180.644C38.052 182.044 37.492 183.584 37.212 185.264C36.932 186.944 36.82 188.372 36.876 189.548ZM66.3534 193.496C66.3534 186.888 68.2014 181.624 71.8974 177.704C75.6494 173.728 80.7174 171.74 87.1014 171.74C93.5974 171.74 98.4974 173.952 101.801 178.376C105.161 182.8 106.841 188.26 106.841 194.756H79.2894C79.6814 198.9 81.1654 202.484 83.7414 205.508C86.3174 208.476 89.6214 209.96 93.6534 209.96C96.6774 209.96 99.9254 209.316 103.397 208.028L105.161 212.816C99.9534 215.112 94.8574 216.26 89.8734 216.26C82.6494 216.26 76.9094 214.16 72.6534 209.96C68.4534 205.704 66.3534 200.216 66.3534 193.496ZM79.2894 189.548L93.4854 188.624C93.4854 187.28 93.4014 186.048 93.2334 184.928C93.0654 183.752 92.5894 182.352 91.8054 180.728C90.4054 178.376 88.7534 177.2 86.8494 177.2C84.6094 177.2 82.7614 178.348 81.3054 180.644C80.4654 182.044 79.9054 183.584 79.6254 185.264C79.3454 186.944 79.2334 188.372 79.2894 189.548ZM108.347 215V210.548L115.487 208.868V180.644H108.347V176.192L121.787 173H128.423V177.116C131.839 173.532 136.067 171.74 141.107 171.74C143.291 171.74 145.251 172.076 146.987 172.748C148.779 173.364 150.263 174.26 151.439 175.436C152.671 176.612 153.623 178.012 154.295 179.636C154.967 181.26 155.303 183.024 155.303 184.928V208.868L162.443 210.548V215H136.907V210.548L142.367 208.868V187.28C142.367 185.544 142.255 184.144 142.031 183.08C141.863 182.016 141.555 181.204 141.107 180.644C140.659 180.028 140.043 179.636 139.259 179.468C138.531 179.244 137.607 179.132 136.487 179.132C134.359 179.132 131.671 180.364 128.423 182.828V208.868L133.883 210.548V215H108.347ZM174.65 177.452V173H200.354V177.452L194.642 178.796L203.126 198.872L211.442 178.88L205.898 177.452V173H224.126V177.452L217.07 179.3L202.118 215.588H196.238L180.698 179.216L174.65 177.452ZM222.144 193.496C222.144 186.888 223.992 181.624 227.688 177.704C231.44 173.728 236.508 171.74 242.892 171.74C249.388 171.74 254.288 173.952 257.592 178.376C260.952 182.8 262.632 188.26 262.632 194.756H235.08C235.472 198.9 236.956 202.484 239.532 205.508C242.108 208.476 245.412 209.96 249.444 209.96C252.468 209.96 255.716 209.316 259.188 208.028L260.952 212.816C255.744 215.112 250.648 216.26 245.664 216.26C238.44 216.26 232.7 214.16 228.444 209.96C224.244 205.704 222.144 200.216 222.144 193.496ZM235.08 189.548L249.276 188.624C249.276 187.28 249.192 186.048 249.024 184.928C248.856 183.752 248.38 182.352 247.596 180.728C246.196 178.376 244.544 177.2 242.64 177.2C240.4 177.2 238.552 178.348 237.096 180.644C236.256 182.044 235.696 183.584 235.416 185.264C235.136 186.944 235.024 188.372 235.08 189.548ZM264.137 215V210.548L271.277 208.868V180.644H264.137V176.192L277.577 173H284.213V178.04C288.413 173.84 293.397 171.74 299.165 171.74C299.501 172.804 299.669 173.98 299.669 175.268C299.669 177.844 299.389 180.252 298.829 182.492L288.245 180.728C286.901 181.344 285.557 182.24 284.213 183.416V208.868L293.033 210.548V215H264.137ZM297.132 177.452V173H322.836V177.452L317.124 178.796L325.608 198.872L333.924 178.88L328.38 177.452V173H346.608V177.452L339.552 179.3L324.6 215.588H318.72L303.18 179.216L297.132 177.452ZM343.591 177.452V173H363.667V201.98C363.667 204.836 364.003 206.824 364.675 207.944C365.403 209.008 366.831 209.54 368.959 209.54C370.583 209.54 372.263 209.12 373.999 208.28C375.735 207.44 377.135 206.32 378.199 204.92V179.132L372.739 177.452V173H391.219V208.7H397.771V212.312C396.539 213.152 395.531 213.768 394.747 214.16C394.019 214.496 393.179 214.832 392.227 215.168C391.331 215.56 390.379 215.84 389.371 216.008C388.419 216.176 387.523 216.26 386.683 216.26C382.651 216.26 379.823 214.44 378.199 210.8C374.223 214.44 369.351 216.26 363.583 216.26C355.015 216.26 350.731 211.864 350.731 203.072V179.132L343.591 177.452ZM396.762 215V210.548L403.902 208.868V155.444H396.762V150.992L410.202 147.8H416.838V208.868L423.978 210.548V215H396.762ZM424.285 193.496C424.285 186.888 426.133 181.624 429.829 177.704C433.581 173.728 438.649 171.74 445.033 171.74C451.529 171.74 456.429 173.952 459.733 178.376C463.093 182.8 464.773 188.26 464.773 194.756H437.221C437.613 198.9 439.097 202.484 441.673 205.508C444.249 208.476 447.553 209.96 451.585 209.96C454.609 209.96 457.857 209.316 461.329 208.028L463.093 212.816C457.885 215.112 452.789 216.26 447.805 216.26C440.581 216.26 434.841 214.16 430.585 209.96C426.385 205.704 424.285 200.216 424.285 193.496ZM437.221 189.548L451.417 188.624C451.417 187.28 451.333 186.048 451.165 184.928C450.997 183.752 450.521 182.352 449.737 180.728C448.337 178.376 446.685 177.2 444.781 177.2C442.541 177.2 440.693 178.348 439.237 180.644C438.397 182.044 437.837 183.584 437.557 185.264C437.277 186.944 437.165 188.372 437.221 189.548ZM466.279 215V210.548L473.419 208.868V180.644H466.279V176.192L479.719 173H486.355V177.116C489.771 173.532 493.999 171.74 499.039 171.74C501.223 171.74 503.183 172.076 504.919 172.748C506.711 173.364 508.195 174.26 509.371 175.436C510.603 176.612 511.555 178.012 512.227 179.636C512.899 181.26 513.235 183.024 513.235 184.928V208.868L520.375 210.548V215H494.839V210.548L500.299 208.868V187.28C500.299 185.544 500.187 184.144 499.963 183.08C499.795 182.016 499.487 181.204 499.039 180.644C498.591 180.028 497.975 179.636 497.191 179.468C496.463 179.244 495.539 179.132 494.419 179.132C492.291 179.132 489.603 180.364 486.355 182.828V208.868L491.815 210.548V215H466.279ZM520.515 195.512C520.515 187.952 522.895 182.1 527.655 177.956C532.471 173.812 538.323 171.74 545.211 171.74C546.947 171.74 548.571 171.908 550.083 172.244V155.444H542.943V150.992L556.383 147.8H563.103V208.7H569.655V212.312C569.319 212.592 568.843 212.956 568.227 213.404C567.667 213.852 566.519 214.44 564.783 215.168C563.047 215.896 561.395 216.26 559.827 216.26C557.475 216.26 555.487 215.7 553.863 214.58C552.295 213.46 551.175 212.256 550.503 210.968C547.423 214.496 543.643 216.26 539.163 216.26C534.067 216.26 529.671 214.496 525.975 210.968C522.335 207.384 520.515 202.232 520.515 195.512ZM533.787 195.176C533.787 199.768 534.767 203.24 536.727 205.592C538.743 207.944 540.731 209.12 542.691 209.12C545.491 209.12 547.955 208.084 550.083 206.012V177.788C548.515 177.396 547.143 177.2 545.967 177.2C542.271 177.2 539.303 178.684 537.063 181.652C534.879 184.564 533.787 189.072 533.787 195.176ZM570.393 193.496C570.393 186.888 572.241 181.624 575.937 177.704C579.689 173.728 584.757 171.74 591.141 171.74C597.637 171.74 602.537 173.952 605.841 178.376C609.201 182.8 610.881 188.26 610.881 194.756H583.329C583.721 198.9 585.205 202.484 587.781 205.508C590.357 208.476 593.661 209.96 597.693 209.96C600.717 209.96 603.965 209.316 607.437 208.028L609.201 212.816C603.993 215.112 598.897 216.26 593.913 216.26C586.689 216.26 580.949 214.16 576.693 209.96C572.493 205.704 570.393 200.216 570.393 193.496ZM583.329 189.548L597.525 188.624C597.525 187.28 597.441 186.048 597.273 184.928C597.105 183.752 596.629 182.352 595.845 180.728C594.445 178.376 592.793 177.2 590.889 177.2C588.649 177.2 586.801 178.348 585.345 180.644C584.505 182.044 583.945 183.584 583.665 185.264C583.385 186.944 583.273 188.372 583.329 189.548ZM22.26 304V299.548L29.4 297.868V244.444H22.26V239.992L35.7 236.8H42.336V297.868L49.476 299.548V304H22.26ZM49.7831 282.496C49.7831 275.888 51.6311 270.624 55.3271 266.704C59.0791 262.728 64.1471 260.74 70.5311 260.74C77.0271 260.74 81.9271 262.952 85.2311 267.376C88.5911 271.8 90.2711 277.26 90.2711 283.756H62.7191C63.1111 287.9 64.5951 291.484 67.1711 294.508C69.7471 297.476 73.0511 298.96 77.0831 298.96C80.1071 298.96 83.3551 298.316 86.8271 297.028L88.5911 301.816C83.3831 304.112 78.2871 305.26 73.3031 305.26C66.0791 305.26 60.3391 303.16 56.0831 298.96C51.8831 294.704 49.7831 289.216 49.7831 282.496ZM62.7191 278.548L76.9151 277.624C76.9151 276.28 76.8311 275.048 76.6631 273.928C76.4951 272.752 76.0191 271.352 75.2351 269.728C73.8351 267.376 72.1831 266.2 70.2791 266.2C68.0391 266.2 66.1911 267.348 64.7351 269.644C63.8951 271.044 63.3351 272.584 63.0551 274.264C62.7751 275.944 62.6631 277.372 62.7191 278.548ZM88.3463 266.452V262H114.05V266.452L108.338 267.796L116.822 287.872L125.138 267.88L119.594 266.452V262H137.822V266.452L130.766 268.3L115.814 304.588H109.934L94.3943 268.216L88.3463 266.452ZM135.84 282.496C135.84 275.888 137.688 270.624 141.384 266.704C145.136 262.728 150.204 260.74 156.588 260.74C163.084 260.74 167.984 262.952 171.288 267.376C174.648 271.8 176.328 277.26 176.328 283.756H148.776C149.168 287.9 150.652 291.484 153.228 294.508C155.804 297.476 159.108 298.96 163.14 298.96C166.164 298.96 169.412 298.316 172.884 297.028L174.648 301.816C169.44 304.112 164.344 305.26 159.36 305.26C152.136 305.26 146.396 303.16 142.14 298.96C137.94 294.704 135.84 289.216 135.84 282.496ZM148.776 278.548L162.972 277.624C162.972 276.28 162.888 275.048 162.72 273.928C162.552 272.752 162.076 271.352 161.292 269.728C159.892 267.376 158.24 266.2 156.336 266.2C154.096 266.2 152.248 267.348 150.792 269.644C149.952 271.044 149.392 272.584 149.112 274.264C148.832 275.944 148.72 277.372 148.776 278.548ZM177.834 304V299.548L184.974 297.868V269.644H177.834V265.192L191.274 262H197.91V266.116C201.326 262.532 205.554 260.74 210.594 260.74C212.778 260.74 214.738 261.076 216.474 261.748C218.266 262.364 219.75 263.26 220.926 264.436C222.158 265.612 223.11 267.012 223.782 268.636C224.454 270.26 224.79 272.024 224.79 273.928V297.868L231.93 299.548V304H206.394V299.548L211.854 297.868V276.28C211.854 274.544 211.742 273.144 211.518 272.08C211.35 271.016 211.042 270.204 210.594 269.644C210.146 269.028 209.53 268.636 208.746 268.468C208.018 268.244 207.094 268.132 205.974 268.132C203.846 268.132 201.158 269.364 197.91 271.828V297.868L203.37 299.548V304H177.834Z" fill="#181E4B"/>
</svg>
